<svg xmlns="http://www.w3.org/2000/svg" width="1000" height="110" viewBox="0 0 1000 110">

    <defs>
        <style>
            .cls-1 {
                fill: #414143;
            }

            .cls-1,
            .cls-2 {
                fill-rule: evenodd;
            }

            .cls-2 {
                fill: #f08467;
            }
        </style>
    </defs>
    <path id="Bortolotti_copiar" data-name="Bortolotti copiar" class="cls-1" d="M68.238,64.243A23.811,23.811,0,0,0,54.5,56.237V55.963a24.8,24.8,0,0,0,10.859-8.074,19.3,19.3,0,0,0,4.211-12.043q0-26.41-38.856-26.412A151.356,151.356,0,0,0,5,12.171v91.416a144.708,144.708,0,0,0,25.412,2.463q42.845,0,42.846-27.37A21.989,21.989,0,0,0,68.238,64.243ZM32.484,48.984H23.472V24.9a53.671,53.671,0,0,1,8.126-.684q8.865,0,13.149,1.916Q50.654,29,50.657,36.394q0,12.592-18.172,12.59h0ZM31.746,90.86a54.221,54.221,0,0,1-8.274-.684V63.764h9.456q21.275,0,21.275,13.685,0,13.413-22.457,13.411h0ZM145.508,44.673q-10.194-10.058-26.889-10.059T91.729,44.673Q81.535,54.732,81.535,70.332T91.582,95.787q10.34,10.264,27.037,10.263t26.889-10.058Q155.7,85.933,155.7,70.332T145.508,44.673Zm-13.3,40.439q-4.581,6.845-13.592,6.843t-13.593-6.843q-3.843-5.61-3.841-14.643t3.841-14.78q4.578-6.841,13.593-6.843t13.592,6.979q3.84,5.748,3.841,14.643,0,9.032-3.841,14.643h0Zm68.7-50.5q-13.683,0-32.317,7.006c0.094,2.281.072,2.342-.039,10.785v52.14h17.729V51.995a10.557,10.557,0,0,0-.147-1.369,48.1,48.1,0,0,1,13.3-1.779,34.966,34.966,0,0,1,9.751,1.369l5.318-14.1a57.655,57.655,0,0,0-13.592-1.505h0ZM261.336,89.9q-8.57,2.739-13.149,2.737-6.8,0-6.8-5.885v-36.4h20.684V36.12H241.391l0.07-24.455-17.8,5.707V87.986q0,19.023,22.753,19.022,7.68,0,19.8-3.832Zm73.132-45.229q-10.194-10.058-26.889-10.059T280.69,44.673q-10.2,10.059-10.195,25.659t10.047,25.454q10.34,10.264,27.037,10.263t26.889-10.058q10.194-10.058,10.195-25.659T334.468,44.673Zm-13.3,40.439q-4.581,6.845-13.592,6.843t-13.593-6.843q-3.843-5.61-3.841-14.643t3.841-14.78q4.578-6.841,13.593-6.843t13.592,6.979q3.84,5.748,3.842,14.643,0,9.032-3.842,14.643h0Zm61.9,5.611a17.711,17.711,0,0,1-5.614,1.505q-3.546,0-3.546-4.242V4.1H356.185V91.818q0,14.235,16.252,14.232a48.344,48.344,0,0,0,14.774-2.463ZM453.7,44.673Q443.5,34.615,426.806,34.615T399.917,44.673q-10.2,10.059-10.195,25.659t10.047,25.454q10.339,10.264,27.037,10.263T453.7,95.992q10.194-10.058,10.195-25.659T453.7,44.673ZM440.4,85.112q-4.581,6.845-13.592,6.843t-13.593-6.843q-3.843-5.61-3.841-14.643t3.841-14.78q4.578-6.841,13.593-6.843T440.4,55.826q3.84,5.748,3.842,14.643,0,9.032-3.842,14.643h0Zm76.825,4.79q-8.569,2.739-13.149,2.737-6.8,0-6.8-5.885v-36.4h20.684V36.12H497.278l-0.2-24.455-17.531,5.707V87.986q0,19.023,22.752,19.022,7.68,0,19.8-3.832Zm54.221,0q-8.569,2.739-13.149,2.737-6.8,0-6.8-5.885v-36.4h20.684V36.12H551.5s-0.118-27.427-.081-24.455c-17.424,5.84-17.649,5.707-17.649,5.707V87.986q0,19.023,22.753,19.022,7.68,0,19.8-3.832ZM602.617,5.808A11.389,11.389,0,0,0,594.934,3a10.764,10.764,0,0,0-7.608,2.805,9.048,9.048,0,0,0-3.029,6.911,8.779,8.779,0,0,0,3.029,6.911,11.082,11.082,0,0,0,7.608,2.668,11.66,11.66,0,0,0,7.757-2.668,8.606,8.606,0,0,0,3.176-6.911A8.787,8.787,0,0,0,602.617,5.808Zm1.477,30.312H586.365v68.425h17.729V36.12Zm-262.375-50.5" />
    <path id="Audio" class="cls-2" d="M697.681,10.2h-10.33l-42.4,94.982h10.33l11.871-27.633h48.408l12.025,27.633h10.946ZM671.01,69.5l19.425-45.269,1.233-3.055h0.154L712.172,69.5H671.01ZM805.443,90.6V35.754h-9.4V90.882q0,1.25.308,4.166a59.428,59.428,0,0,1-21.892,4.3q-18.81,0-18.808-17.774V35.754h-9.4V83.523q0,11.388,7.245,17.288t19.888,5.9q14.645,0,32.992-7.22a69.963,69.963,0,0,1-.925-8.887h0ZM879.751,93.8V3.26h-9.4V37.837a39.588,39.588,0,0,0-17.267-3.61q-16.961,0-26.671,10.415-9.1,9.722-9.1,25.273,0,16.11,10.175,26.245,10.482,10.554,28.059,10.553,11.1,0,24.975-4.582a69.118,69.118,0,0,1-.771-8.332h0Zm-23.742,5.555q-13.567,0-21.275-8.887Q827.8,82.414,827.8,69.914q0-11.941,6.166-19.58,6.938-8.748,19.734-8.748,10.174,0,16.65,4.444V94.076a27.49,27.49,0,0,0,.154,2.777,38.442,38.442,0,0,1-14.492,2.5h0ZM910.121,7.982a7.661,7.661,0,0,0-4.779-1.527q-6.631,0-6.63,5.554t6.63,5.554a7.648,7.648,0,0,0,4.779-1.527,4.825,4.825,0,0,0,2-4.027A4.828,4.828,0,0,0,910.121,7.982Zm0.154,27.772h-9.4v69.431h9.4V35.754Zm75.694,8.609q-10.023-10.135-26.054-10.137T933.861,44.364Q923.838,54.5,923.84,70.47t10.021,26.106q10.02,10.138,26.054,10.136t26.054-10.136q10.02-10.135,10.021-26.106T985.969,44.364Zm-7.323,47.074q-6.861,7.915-18.731,7.915t-18.731-7.915q-6.862-7.915-6.861-20.968T941.184,49.5q6.858-7.915,18.731-7.915T978.646,49.5q6.858,7.915,6.861,20.968T978.646,91.438Z" />
</svg>