<?xml version="1.0" standalone="no"?>
<!DOCTYPE svg PUBLIC "-//W3C//DTD SVG 20010904//EN"
 "http://www.w3.org/TR/2001/REC-SVG-20010904/DTD/svg10.dtd">
<svg version="1.0" xmlns="http://www.w3.org/2000/svg"
 width="250.000000pt" height="212.000000pt" viewBox="0 0 250.000000 212.000000"
 preserveAspectRatio="xMidYMid meet">

<g transform="translate(0.000000,212.000000) scale(0.100000,-0.100000)"
fill="#5E6D76" stroke="none">
<path d="M1143 2070 c-28 -16 -68 -49 -87 -72 -49 -58 -1005 -1613 -1022
-1662 -30 -83 -9 -192 47 -243 13 -12 47 -32 74 -45 l50 -23 1019 -3 c1110 -3
1092 -3 1178 53 58 39 81 94 76 179 -5 77 -18 106 -112 256 -60 97 -389 633
-699 1139 -116 189 -226 359 -245 378 -78 79 -188 95 -279 43z m203 -55 c28
-16 55 -46 81 -87 167 -265 959 -1589 970 -1621 34 -99 -22 -194 -127 -216
-39 -8 -339 -11 -1055 -9 -933 3 -1002 4 -1032 21 -80 43 -115 125 -90 207 11
35 534 902 757 1255 21 33 82 132 135 220 135 223 168 254 269 255 35 0 62 -7
92 -25z"/>
<path d="M1200 1999 c-49 -20 -84 -68 -263 -359 -99 -162 -318 -518 -485 -790
-168 -272 -311 -509 -318 -527 -30 -71 -5 -151 57 -185 32 -17 85 -18 1052
-18 1105 0 1060 -2 1105 55 27 34 29 102 6 148 -18 34 -21 40 -409 682 -137
226 -322 533 -412 682 -105 174 -176 281 -195 294 -34 25 -101 34 -138 18z
m226 -349 c88 -43 156 -112 197 -198 30 -63 32 -74 32 -177 0 -99 -3 -116 -27
-168 -15 -32 -52 -84 -83 -116 -205 -215 -549 -156 -678 117 -29 61 -32 75
-32 167 0 93 3 105 34 172 53 114 159 204 276 234 17 5 71 7 121 6 81 -3 99
-7 160 -37z m-1038 -1098 c10 -10 47 -89 81 -175 52 -129 61 -160 51 -172 -24
-29 -50 -18 -71 30 l-20 45 -72 0 -73 0 -19 -42 c-16 -34 -25 -43 -45 -43 -41
0 -36 33 30 200 70 175 93 202 138 157z m247 12 c9 -4 53 -61 98 -128 l82
-121 3 114 c3 133 17 164 56 125 13 -13 16 -43 16 -173 0 -171 -6 -196 -51
-189 -18 2 -43 32 -104 122 l-80 118 -3 -113 c-1 -63 -7 -118 -12 -123 -5 -5
-20 -6 -34 -2 l-26 6 0 167 c0 141 3 169 17 185 19 21 16 20 38 12z m1528 -16
c30 -28 140 -296 135 -329 -2 -18 -9 -24 -28 -24 -20 0 -29 9 -45 43 l-19 42
-73 0 -72 0 -20 -45 c-21 -47 -47 -59 -70 -31 -9 11 1 48 49 173 54 141 84
193 111 193 4 0 19 -10 32 -22z m-928 -18 c0 -23 -4 -25 -55 -30 l-55 -5 -5
-150 -5 -150 -30 0 -30 0 -3 153 -3 152 -55 0 c-59 0 -78 16 -54 45 11 13 38
15 154 13 l141 -3 0 -25z m323 6 c6 -29 -16 -36 -110 -36 l-88 0 0 -45 0 -45
89 0 c65 0 90 -4 94 -13 10 -28 -10 -36 -93 -39 l-85 -3 0 -50 0 -50 97 -3
c79 -2 97 -6 103 -20 13 -34 -22 -43 -148 -40 -91 2 -120 6 -127 18 -5 8 -10
83 -10 167 0 126 3 154 16 168 13 13 37 15 137 13 110 -3 122 -5 125 -22z
m312 9 c35 -18 50 -43 50 -85 0 -42 -15 -67 -51 -85 l-30 -16 32 -36 c61 -70
72 -133 23 -133 -19 0 -34 15 -70 70 -46 72 -67 90 -103 90 -19 0 -21 -6 -21
-68 0 -70 -10 -92 -42 -92 -31 0 -38 35 -38 185 0 82 5 155 10 166 10 17 22
19 111 19 70 0 109 -5 129 -15z"/>
<path d="M1145 1647 c-152 -51 -248 -159 -276 -312 -36 -197 110 -397 319
-435 162 -29 333 62 408 217 25 52 28 69 29 158 0 88 -3 107 -27 157 -37 79
-108 152 -184 189 -51 25 -78 32 -146 35 -53 3 -98 -1 -123 -9z m251 -67 c145
-71 222 -237 180 -386 -19 -66 -71 -149 -114 -181 -76 -56 -113 -68 -212 -68
-84 0 -102 3 -152 28 -230 113 -254 437 -43 583 103 71 228 79 341 24z"/>
<path d="M1192 1563 c-12 -10 -64 -114 -117 -232 -82 -182 -95 -218 -86 -238
12 -27 51 -39 79 -24 11 6 30 35 43 66 l23 55 111 0 111 0 27 -55 c33 -67 64
-86 102 -61 15 10 25 26 25 40 0 35 -178 417 -207 444 -29 27 -82 29 -111 5z
m92 -192 c20 -47 36 -88 36 -93 0 -4 -34 -8 -76 -8 -68 0 -75 2 -70 18 20 52
70 171 72 169 1 -1 18 -40 38 -86z"/>
<path d="M1096 1055 c-10 -26 -7 -30 18 -31 21 -2 23 1 17 19 -10 27 -27 32
-35 12z"/>
<path d="M1151 1044 c0 -16 3 -23 6 -16 4 9 8 10 18 2 10 -8 15 -6 20 9 8 28
23 27 28 -1 l4 -23 2 23 c1 27 21 30 21 3 0 -25 10 -31 35 -20 l20 8 -20 0
c-17 1 -17 3 -5 11 13 9 13 10 0 10 -13 0 -13 1 0 10 11 7 -2 10 -42 10 -36 0
-58 -4 -58 -11 0 -8 -5 -8 -15 1 -13 11 -15 8 -14 -16z"/>
<path d="M1311 1043 c0 -16 3 -22 6 -15 4 10 8 10 19 1 11 -9 14 -7 14 15 0
19 -5 26 -20 26 -15 0 -20 -6 -19 -27z"/>
<path d="M1370 1051 c-13 -26 -14 -26 15 -26 17 0 24 4 20 13 -3 8 -5 18 -5
23 0 16 -19 10 -30 -10z"/>
<path d="M345 459 c-20 -55 -35 -103 -35 -110 0 -5 20 -9 45 -9 25 0 45 4 45
8 0 15 -32 107 -41 116 -5 6 -10 4 -14 -5z"/>
<path d="M2106 418 c-9 -29 -20 -59 -23 -65 -3 -10 9 -13 46 -13 28 0 51 3 51
6 0 16 -43 124 -50 124 -3 0 -14 -24 -24 -52z"/>
<path d="M1702 453 l3 -48 40 1 c72 1 95 11 95 42 0 41 -17 52 -83 52 l-58 0
3 -47z"/>
</g>
</svg>
