<svg width="1772" height="230" xmlns="http://www.w3.org/2000/svg" preserveAspectRatio="xMidYMid meet">

 <g>
  <title>background</title>
  <rect fill="none" id="canvas_background" height="232" width="1774" y="-1" x="-1"/>
 </g>
 <g>
  <title>Layer 1</title>
  <path fill="#5e6d76" id="svg_2" d="m807.000012,10.899984c-26.4,5.9 -47.700001,19.7 -63.700001,41.100001c-21,28.2 -26.3,67.400001 -13.4,100.600001c7.2,18.7 23,38.700001 39.000001,49.400001c31.2,20.9 70.700001,24.1 103.800002,8.5c12.4,-5.9 19.3,-10.5 29,-19.8c16,-15.4 26.3,-34.200001 30.8,-56.600001c2.6,-12.7 1.7,-35.500001 -1.9,-47.600001c-8.9,-30.1 -28,-53.100001 -55.100001,-66.500001c-16.1,-8 -25,-10.2 -44.000001,-10.6c-13.1,-0.3 -17.5,0 -24.5,1.5zm34.600001,8.2c32.9,4.5 60.200001,24.9 74.600001,55.500001c6.6,14.3 8.1,21.5 8.1,39.900001c0,18.8 -1.6,26.3 -8.9,41.400001c-12.6,26.3 -34.800001,44.600001 -63.400001,52.200001c-12.2,3.3 -33.700001,3.3 -46.400001,0.1c-28.7,-7.2 -52.000001,-26.6 -64.700001,-53.700001c-10,-21.3 -11.4,-48.200001 -3.8,-70.700001c14.8,-43.600001 59.200001,-71.000001 104.500002,-64.700001z"/>
  <path fill="#5e6d76" id="svg_3" d="m846.200012,27.499985c-5.3,4.4 -6.4,7.7 -6.3,17.9c0.1,5 1,32.3 2.1,60.600001c2.3,56.400001 2.1,55.400001 8.5,59.200001c4.3,2.5 47.400001,2.9 52.000001,0.5c4.5,-2.3 7.1,-5.5 10.5,-12.9c6.1,-13.6 7.5,-20.7 7.5,-38.300001c0,-17.6 -1.4,-24.7 -7.5,-38.100001c-9.1,-20.2 -27.3,-38.100001 -47.900001,-47.000001c-11.3,-4.9 -14.9,-5.2 -18.9,-1.9z"/>
  <path fill="#5e6d76" id="svg_4" d="m791.800012,29.499985c-14.3,5.8 -30.9,19.8 -40.400001,34.200001c-10.1,15.1 -14.4,28.6 -15.1,48.000001c-0.3,7.3 -0.3,13.3 0,13.3c0.6,0 14.1,-21.3 37.200001,-58.500001c9.2,-14.9 18.6,-29.6 20.7,-32.8c2.2,-3.2 3.8,-6 3.6,-6.2c-0.1,-0.2 -2.8,0.7 -6,2z"/>
  <path fill="#5e6d76" id="svg_5" d="m804.000012,70.599985c-1.6,3.7 -3,7.1 -3,7.5c0,1.4 5.2,2.3 6.9,1.2c1.2,-0.8 1.6,-2.7 1.6,-7.8c0,-9.1 -1.6,-9.4 -5.5,-0.9z"/>
  <path fill="#5e6d76" id="svg_6" d="m772.000011,126.699986c-8.5,13 -16.1,25.1 -16.8,26.8c-2,4.3 -1.9,14.7 0,17.6c3,4.6 15.4,16.1 22,20.5c8.3,5.5 17.4,9.7 27.5,12.6c6.7,2 10.2,2.3 23.8,2.3c17.2,0 24.6,-1.4 36.600001,-6.9l5.4,-2.4l-29.8,-0.1l-29.7,-0.1l-1,-2.6c-0.6,-1.5 -1,-20.5 -1,-47.000001l0,-44.400001l-10.7,0l-10.8,0l-15.5,23.7z"/>
  <path fill="#5e6d76" id="svg_7" d="m108.600001,51.799985c-6.5,12.9 -60.600001,126.500002 -60.600001,127.300002c0,0.6 7,0.8 17.6,0.7l17.7,-0.3l6.5,-14.8l6.5,-14.7l32.2,0l32.1,0l7,15l6.9,14.9l18.3,0.1c10,0 18.2,-0.2 18.2,-0.4c0,-0.3 -14.5,-30.1 -32.3,-66.300001l-32.4,-65.800001l-17.6,-0.3l-17.6,-0.2l-2.5,4.8zm30.2,51.400001c5.6,12.3 10.2,22.6 10.2,23c0,0.5 -9.5,0.8 -21.1,0.8c-11.6,0 -20.9,-0.4 -20.7,-0.9c2.5,-6.5 20.3,-45.100001 20.8,-45.100001c0.4,0 5.3,10 10.8,22.2z"/>
  <path fill="#5e6d76" id="svg_8" d="m442.000006,70.099985l0,23.1l-2.2,-1.6c-5.5,-4 -17.1,-8.8 -23.8,-9.9c-13.6,-2.1 -29.1,1.8 -39.900001,9.9c-11.1,8.3 -16.1,18.9 -16.9,35.700001c-0.8,18.7 3,30 14,40.900001c17.5,17.4 46.800001,18.5 66.900001,2.6l5.1,-4l-0.4,6.6l-0.3,6.6l15,0l15,0l0,-66.500001l0,-66.500001l-16.2,0l-16.3,0l0,23.1zm-15.9,33c5.1,1.6 10.5,6.2 13.2,11.2c1.9,3.7 2.2,5.7 2.2,16.7c0,13.9 -1.3,17.9 -7.6,24c-12.2,11.6 -35.600001,5.7 -40.300001,-10.1c-2.2,-7.3 -2.1,-22 0.1,-28.3c2,-5.5 8.2,-11.7 13.5,-13.3c4.5,-1.5 14.3,-1.5 18.9,-0.2z"/>
  <path fill="#5e6d76" id="svg_9" d="m504.000007,59.199985l0,12.3l16,-0.3l16,-0.3l0,-11.9l0,-12l-16,0l-16,0l0,12.2z"/>
  <path fill="#5e6d76" id="svg_10" d="m1442.800021,69.999985l-0.3,22.9l-5,-3.3c-11.3,-7.5 -25.7,-10.1 -39.500001,-7.2c-19.3,4.1 -31.9,15.6 -36.500001,33.3c-1.8,6.8 -2,22 -0.4,29.5c3.6,16.9 18.5,31.7 35.900001,35.700001c14.8,3.4 34.000001,-1.1 44.600001,-10.6c3.7,-3.3 3.9,-3.4 4.2,-1.2c0.2,1.2 0.2,4.2 0,6.5l-0.3,4.4l15,0l15,0l0,-66.500001l0,-66.500001l-16.2,0l-16.3,0l-0.2,23zm-12.9,34.500001c10,5 13.6,13.3 12.9,29.4c-0.3,8.2 -0.8,10.4 -3.2,14.7c-1.5,2.9 -4.1,6.1 -5.7,7.3c-10,7.4 -25.5,6.5 -34.000001,-2c-4.8,-4.8 -7.1,-12.2 -7.1,-23.3c-0.1,-11.2 2.1,-17.4 7.7,-22.4c5.4,-4.7 9,-6 17.8,-6.1c5.3,-0.1 7.8,0.4 11.6,2.4z"/>
  <path fill="#5e6d76" id="svg_11" d="m977.000014,113.999986l0,66.000001l58.000001,0l58.000001,0l0,-11.5l0,-11.5l-40.700001,-0.2l-40.800001,-0.3l-0.3,-54.300001l-0.2,-54.200001l-17,0l-17,0l0,66.000001z"/>
  <path fill="#5e6d76" id="svg_12" d="m606.300009,82.499985c-20.3,3.7 -34.300001,13.4 -42.000001,29.3c-3,6.1 -3.6,8.6 -4.1,16c-1.4,24.9 10.5,41.700001 35.400001,50.200001c9.5,3.3 10.5,3.4 25.4,3.4c14.3,0.1 16.1,-0.2 23.1,-2.6c10.3,-3.6 18.7,-8.8 25.2,-15.7c8.7,-9.1 12.7,-19 12.7,-31.6c0,-12 -3.6,-21.5 -11.6,-30.4c-14.4,-16 -39.000001,-23.2 -64.100001,-18.6zm25.9,22.5c6.2,2.3 11,6.5 14,12.3c1.9,3.5 2.2,5.9 2.3,14.2c0,8.6 -0.3,10.6 -2.3,14.4c-3.1,5.8 -5.8,8.4 -11.2,11.3c-3.8,1.9 -6,2.3 -14,2.3c-8.1,0 -10.2,-0.4 -14.3,-2.5c-10.1,-5.1 -14.2,-13.6 -13.5,-27.4c0.7,-13 6.3,-21.2 17.5,-25.2c5.7,-2 15.3,-1.7 21.5,0.6z"/>
  <path fill="#5e6d76" id="svg_13" d="m1150.500017,81.699985c-10.5,1.4 -20.6,6 -29.4,13.3c-4.9,4 -6.8,6.6 -10.3,13.7l-4.3,8.6l0,14.6c0,14.4 0,14.7 3.3,21.5c6.3,13.4 14.6,20.7 28.7,25.2c10.5,3.5 29.3,4.4 40.500001,2c14.7,-3.1 26.9,-11.4 33.4,-22.8l2.7,-4.7l-2.3,-0.5c-3.3,-0.7 -25.6,-3.6 -27.7,-3.6c-1,0 -3,1.9 -4.7,4.5c-4.1,6.5 -9.4,8.9 -18.7,8.3c-7.7,-0.5 -13.6,-2.9 -17.4,-7c-2.7,-2.9 -5.3,-8.9 -5.3,-12.3l0,-2.5l38.500001,0l38.500001,0l0,-7.3c-0.1,-20.6 -9.5,-36.900001 -26.1,-45.100001c-10.8,-5.3 -26.3,-7.6 -39.400001,-5.9zm21.3,21.8c2,0.9 4.8,2.6 6.1,3.8c3,2.7 6,9.3 6.1,12.9l0,2.8l-22.5,0l-22.5,0l0,-2.3c0,-2.7 3.1,-9.5 5.6,-12.3c1.1,-1.2 3.7,-3.1 5.9,-4.3c4.9,-2.6 15.7,-2.9 21.3,-0.6z"/>
  <path fill="#5e6d76" id="svg_14" d="m1272.400019,82.099985c-13.3,1.7 -22.3,5.8 -28.9,13c-4.2,4.6 -8.1,12.7 -6.8,13.9c0.8,0.8 21.9,4 25.9,4c1.4,0 3.1,-1.4 4.8,-4c3.6,-5.4 7.8,-7 18.8,-7c13.5,0 18.8,3.2 18.8,11.2c0,3.4 -0.3,3.8 -3.7,4.8c-2.1,0.5 -10.3,2.1 -18.3,3.5c-33.800001,5.9 -42.200001,9.6 -48.000001,21.1c-4.4,8.9 -2.9,19.2 3.9,27.5c10.8,13.1 39.200001,15.9 59.400001,5.8c3.4,-1.7 7,-3.8 7.9,-4.7c1.7,-1.4 1.9,-1.1 3.9,3.7l2.2,5.1l15.9,0l15.8,0l-2.1,-4.2c-4,-7.7 -4.2,-10.1 -4.8,-41.300001c-0.6,-30.5 -0.6,-31.1 -3.1,-36.000001c-2.9,-5.8 -8.6,-10.5 -16.5,-13.4c-9.6,-3.6 -30.1,-5 -45.100001,-3zm30.5,70.900001c-6,10.6 -28,13.6 -35.500001,4.7c-4.3,-5.2 -2.7,-12.5 3.5,-15.7c1.4,-0.7 9.5,-2.7 18,-4.4l15.6,-3.1l0.3,7.3c0.2,6 -0.1,8 -1.9,11.2z"/>
  <path fill="#5e6d76" id="svg_15" d="m1540.500023,81.599985c-22,3.5 -39.300001,18.6 -43.400001,38.200001c-2.5,12.1 -0.5,28.4 4.6,37.200001c4.1,6.9 12.2,14.9 18.4,18c10.8,5.5 16,6.5 33.4,6.4c14,0 16.8,-0.3 22.5,-2.3c7.8,-2.7 14,-6.5 19.8,-12.2c4.7,-4.6 9.8,-12.6 8.8,-13.6c-0.4,-0.4 -7.5,-1.6 -15.9,-2.8l-15.2,-2l-2.5,4.5c-5.7,10.3 -22.6,12.2 -34.000001,3.9c-3.3,-2.5 -8,-11 -8,-14.6l0,-2.3l39.100001,0l39.200001,0l-0.6,-8.3c-1.3,-16.5 -5.2,-26.4 -14.2,-35.200001c-9.8,-9.9 -21.4,-14.3 -39.000001,-15c-5.5,-0.2 -11.3,-0.1 -13,0.1zm22,22.3c7.1,3.3 10.5,7.7 11.9,15.3l0.7,3.8l-23.1,0l-23,0l0.6,-2.8c2,-8.9 5.5,-13.6 12.4,-16.6c4.9,-2.1 15.6,-2 20.5,0.3z"/>
  <path fill="#5e6d76" id="svg_16" d="m1676.200025,82.899985c-5.5,1.9 -7.7,3.4 -12.9,9.1l-3.3,3.5l0,-6.3l0,-6.2l-15,0l-15,0l0,48.500001l0,48.500001l16,0l16,0l0,-23.8c0,-26.5 1,-35.600001 4.3,-42.200001c4.2,-8.3 13.9,-11 25.3,-7.1l5.5,2l1.4,-3.2c0.8,-1.8 3,-6.8 4.9,-11.2l3.5,-8l-3.9,-1.8c-8.7,-3.9 -18.7,-4.6 -26.8,-1.8z"/>
  <path fill="#5e6d76" id="svg_17" d="m227.200003,120.699986c0.3,36.100001 0.4,38.000001 2.4,42.300001c5.7,12 19,19 36.400001,19c13,0 27.3,-5 35.300001,-12.5l3.9,-3.6l-0.4,7.1l-0.3,7l15.3,0l15.2,0l-0.2,-48.300001l-0.3,-48.200001l-16.2,-0.3l-16.3,-0.2l0,29.2c-0.1,30.9 -0.6,36.400001 -3.7,40.700001c-2.8,3.8 -11.1,7.9 -17.4,8.7c-10.7,1.2 -18.8,-3.1 -20.8,-11c-0.7,-2.9 -1.1,-16 -1.1,-36.000001l0,-31.6l-16.1,0l-16,0l0.3,37.700001z"/>
  <path fill="#5e6d76" id="svg_18" d="m504.000007,131.499986l0,48.500001l16,0l16,0l0,-48.500001l0,-48.500001l-16,0l-16,0l0,48.500001z"/>
 </g>
</svg>