<svg width="118.06882" height="96.61582" xmlns="http://www.w3.org/2000/svg">

 <g>
  <title>background</title>
  <rect fill="none" id="canvas_background" height="402" width="582" y="-1" x="-1"/>
 </g>
 <g>
  <title>Layer 1</title>
  <path fill="#5E6D76" fill-opacity="0.992157" fill-rule="nonzero" id="path6093" d="m37.00898,74.765989c-1.466,0 -2.809,0.512 -3.872,1.355l0,-4.737c0,-0.65 -0.529,-1.174 -1.182,-1.174l-1.187,0l0,15.755c0,0.65 0.527,1.178 1.182,1.178l1.187,0l0,-6.334c0.106,-2.051 1.793,-3.683 3.872,-3.683c2.143,0 3.879,1.733 3.879,3.878l0,4.954c0,0.628 0.494,1.127 1.114,1.168l1.238,0l0.01,-6.122c0,-3.445 -2.791,-6.238 -6.236,-6.238m21.241,0.09l0,11.097c0,0.647 0.529,1.176 1.182,1.176l0,0.01l1.18,0l0,-12.279l-2.362,0m-48.767,10.032c-2.142,0 -3.88,-1.74 -3.88,-3.884c0,-2.145 1.738,-3.88 3.88,-3.88c2.146,0 3.881,1.735 3.881,3.88c0,2.144 -1.735,3.884 -3.881,3.884m0,-10.123c-1.503,0 -2.881,0.53 -3.961,1.423l0,-4.795l0,0c0,-0.65 -0.53,-1.176 -1.181,-1.176l0,-0.01l-1.086,0l0,10.697c0,0.04 -0.01,0.07 -0.01,0.103c0,3.447 2.795,6.238 6.239,6.238c3.443,0 6.237,-2.791 6.237,-6.238c0,-3.447 -2.794,-6.239 -6.237,-6.239m100.29,0c-3.444,0 -6.238,2.792 -6.238,6.237l0,4.988c0.03,0.627 0.533,1.135 1.169,1.135l1.189,0l0,-6.123c0,-2.145 1.735,-3.877 3.88,-3.877c1.641,0 3.041,1.012 3.61,2.457l2.461,0c-0.646,-2.762 -3.114,-4.817 -6.07,-4.817m-35.062,6.239c0,-3.447 -2.789,-6.238 -6.232,-6.238c-3.449,0 -6.242,2.791 -6.242,6.238l0,4.94c0,0.65 0.531,1.181 1.181,1.181l1.164,0l0.01,-6.121c0,-2.145 1.737,-3.88 3.885,-3.88c2.141,0 3.877,1.735 3.877,3.88l0,4.94c0,0.65 0.53,1.181 1.184,1.181l1.179,0l-0.01,-6.121m-14.1,-8.905c0,0.65 -0.53,1.178 -1.18,1.178c-0.65,0 -1.182,-0.528 -1.182,-1.178c0,-0.649 0.532,-1.179 1.182,-1.179c0.65,0 1.18,0.53 1.18,1.179m21.602,12.788c-2.142,0 -3.88,-1.74 -3.88,-3.883c0,-2.145 1.738,-3.88 3.88,-3.88c2.144,0 3.88,1.735 3.88,3.88c0,2.143 -1.736,3.883 -3.88,3.883m6.236,-3.883c0,-3.447 -2.79,-6.239 -6.236,-6.239c-3.445,0 -6.235,2.792 -6.235,6.239c0,3.447 2.79,6.238 6.235,6.238c1.473,0 2.826,-0.51 3.894,-1.365l0,0.775c0,2.142 -1.74,3.882 -3.885,3.882c-1.64,0 -3.039,-1.02 -3.605,-2.457l-2.466,0c0.65,2.76 3.115,4.813 6.071,4.813c3.447,0 6.237,-2.795 6.222,-6.238l0,-5.56c0,-0.03 0,-0.06 0,-0.09m7.553,-3.88c1.642,0 3.047,1.023 3.615,2.468l-7.229,0c0.566,-1.445 1.965,-2.468 3.614,-2.468m5.815,4.739l0.359,0c0.04,-0.281 0.07,-0.565 0.07,-0.859c0,-3.446 -2.798,-6.238 -6.242,-6.238c-3.445,0 -6.237,2.792 -6.237,6.238c0,3.448 2.792,6.239 6.237,6.239c2.807,0 5.183,-1.861 5.964,-4.415l-2.54,0c-0.652,1.225 -1.941,2.06 -3.424,2.06c-1.848,0 -3.392,-1.294 -3.785,-3.024l9.6,0l0,0m-78.585,-4.739c1.644,0 3.049,1.023 3.615,2.468l-7.226,0c0.563,-1.445 1.967,-2.468 3.611,-2.468m5.82,4.739l0.352,0c0.04,-0.281 0.07,-0.565 0.07,-0.859c0,-3.446 -2.793,-6.239 -6.24,-6.239c-3.446,0 -6.236,2.793 -6.236,6.239c0,3.448 2.79,6.239 6.236,6.239c2.814,0 5.185,-1.861 5.969,-4.415l-2.544,0c-0.651,1.225 -1.942,2.06 -3.425,2.06c-1.846,0 -3.39,-1.294 -3.781,-3.024l9.602,0l0,0m22.008,-7.097c-3.448,0 -6.237,2.792 -6.237,6.237l-0.01,4.96c0.01,0.625 0.494,1.121 1.114,1.163l1.251,0l0,-6.123c0,-2.145 1.732,-3.877 3.879,-3.877c1.638,0 3.037,1.012 3.605,2.457l2.462,0c-0.64,-2.764 -3.107,-4.819 -6.063,-4.819"/>
  <path fill="#5E6D76" fill-opacity="0.992157" fill-rule="nonzero" id="path6109" d="m42.00498,43.207989c0.63,-0.103 1.491,-0.308 2.476,-0.703c1.368,-0.557 4.105,-1.97 6.675,-4.42c2.039,-1.944 3.337,-4.148 3.292,-5.898c-0.06,-2.469 -2.784,-2.479 -3.857,-2.387c-0.263,0.02 -0.493,0.147 -0.617,0.325c-1.238,1.802 -8.219,11.971 -8.509,12.38c-0.344,0.482 -0.147,0.82 0.54,0.703m16.768,-19.72c-2.915,0.968 -5.984,2.988 -6.45,3.3c-0.01,0 -0.01,0.01 -0.01,0.01c-0.01,0 -0.02,0.01 -0.04,0.02c-0.01,0.01 -0.01,0.01 -0.01,0.01c-0.142,0.109 -0.208,0.268 -0.142,0.372c0.07,0.105 0.242,0.112 0.407,0.03l0,0c0,0 2.443,-1.674 5.34,-2.515c2.042,-0.594 4.31,-0.749 6.101,0.281c4.761,2.745 2.325,10.954 -1.459,16.405c-2.172,3.132 -5.329,6.511 -8.863,8.802c-2.728,1.763 -5.361,2.974 -8.443,2.984c-6.346,0.02 -5.659,-7.055 -5.659,-7.055l-0.01,0c0,-0.01 0,-0.01 0,-0.02c0.02,-0.207 -0.04,-0.386 -0.146,-0.394c-0.103,-0.01 -0.2,0.147 -0.22,0.357c0,0.01 0,0.02 0,0.03l0,0c-0.07,1.028 -0.706,4.9 2.631,7.57c1.225,0.983 2.66,1.321 4.038,1.402c1.858,0.11 3.806,-0.286 4.827,-0.574c1.439,-0.407 3.535,-1.198 6.543,-3.181c2.637,-1.74 5.487,-4.267 7.671,-6.806c3.002,-3.486 5.936,-8.676 6.231,-12.933c0.749,-10.745 -8.746,-9.29 -12.335,-8.096m41.636,34.099l-0.127,0.83l-0.113,0.365l-0.327,0.826c-0.895,1.811 -2.834,2.96 -4.841,2.95l-70.902,0l-0.893,-0.07c-1.973,-0.321 -3.695,-1.771 -4.272,-3.695l-0.118,-0.38l-0.128,-0.83l0,-0.862l0.06,-0.399l0.199,-0.833l0.15,-0.393l0.39,-0.778l35.839,-48.887l0.252,-0.323l0.304,-0.334l0.294,-0.267l0.682,-0.523l0.754,-0.375l0.827,-0.255l0.828,-0.126l0.825,0l0.86,0.126l0.38,0.12l0.786,0.325l0.73,0.444l0.625,0.531l0.276,0.305l35.624,48.893l0.471,0.736l0.313,0.776l0.127,0.412l0.128,0.831l0,0.856l-0.003,0.004zm1.325,-1.952l-0.188,-0.634l-0.367,-0.914l-0.59,-0.946l-35.673,-48.959l-0.374,-0.42l-0.446,-0.407l-0.36,-0.287l-0.915,-0.565l-0.959,-0.405l-0.523,-0.167l-1.091,-0.17l-1.037,-0.01l-1.05,0.15l-1.039,0.311l-0.981,0.479l-0.919,0.688l-0.359,0.323l-0.411,0.452l-0.301,0.382l-35.605,48.565l-0.29,0.395l-0.496,0.97l-0.208,0.533l-0.255,1.057l-0.07,0.505l-0.01,1.078l0.152,1.047l0.17,0.578c0.909,2.832 3.5,4.728 6.477,4.763l71.046,0l0.994,-0.07c2.593,-0.422 4.717,-2.17 5.513,-4.692l0.147,-0.468l0.168,-1.04l0.01,-1.089"/>
 </g>
</svg>