<?xml version="1.0" standalone="no"?>
<!DOCTYPE svg PUBLIC "-//W3C//DTD SVG 20010904//EN"
 "http://www.w3.org/TR/2001/REC-SVG-20010904/DTD/svg10.dtd">
<svg version="1.0" xmlns="http://www.w3.org/2000/svg"
 width="1000.000000pt" height="355.000000pt" viewBox="0 0 1000.000000 355.000000"
 preserveAspectRatio="xMidYMid meet">

<g transform="translate(0.000000,355.000000) scale(0.100000,-0.100000)"
fill="#5E6D76" stroke="none">
<path d="M2880 3539 c-688 -54 -1333 -281 -1944 -683 -466 -308 -749 -798
-625 -1085 26 -62 101 -134 174 -167 164 -75 445 -71 798 13 60 14 111 22 114
19 33 -32 -419 -538 -602 -675 -158 -117 -354 -190 -458 -170 -27 5 -51 9 -53
9 -8 0 -84 73 -84 80 0 4 11 12 25 18 18 8 25 19 25 40 0 104 -170 119 -230
19 -60 -98 21 -257 165 -323 69 -32 139 -44 249 -44 191 0 382 77 682 276 61
41 115 74 121 74 6 0 53 -28 105 -62 212 -142 384 -198 607 -198 240 0 479 67
664 186 266 171 467 398 597 676 l55 117 125 2 c69 0 137 3 153 5 34 6 67 -11
67 -35 0 -10 -58 -96 -129 -191 -150 -200 -196 -274 -218 -349 -21 -74 -14
-176 17 -226 50 -82 167 -132 327 -142 130 -8 196 7 332 78 63 32 122 59 132
59 11 0 39 -20 63 -43 65 -65 156 -92 301 -91 152 1 237 31 358 125 53 42 73
42 123 -1 96 -83 190 -113 359 -115 72 -1 136 -3 143 -3 43 -6 -46 -147 -183
-291 -115 -119 -194 -181 -290 -227 -59 -29 -80 -34 -140 -34 -116 0 -225 35
-225 73 0 5 11 22 25 39 52 62 22 120 -63 120 -97 0 -142 -43 -142 -137 0
-114 63 -201 180 -247 47 -19 75 -22 195 -22 104 0 157 4 205 17 102 28 275
119 393 208 144 107 232 214 536 644 78 110 148 202 155 205 8 3 51 4 95 2
l80 -3 12 -57 c31 -151 137 -250 322 -299 84 -23 283 -22 401 1 303 59 453
185 710 594 50 81 112 182 136 224 l45 78 52 0 c28 0 55 -5 58 -10 4 -6 -22
-43 -57 -83 -145 -164 -239 -294 -296 -415 -33 -68 -37 -86 -37 -152 0 -65 4
-81 28 -118 112 -173 408 -157 624 32 l46 40 24 -30 c59 -72 98 -104 151 -126
50 -20 74 -23 202 -23 164 0 220 14 311 79 27 20 57 36 67 36 9 0 27 -18 40
-41 39 -68 76 -79 278 -79 188 0 217 6 344 70 209 105 351 272 283 332 -50 44
-110 24 -231 -73 -94 -76 -181 -119 -240 -119 -65 0 -107 27 -94 59 4 9 132
204 285 434 152 230 277 423 277 430 0 32 -24 37 -184 37 l-160 0 -51 -55
c-28 -30 -57 -55 -66 -55 -9 0 -27 17 -40 37 -45 70 -133 110 -220 100 -120
-14 -329 -109 -514 -231 -137 -92 -246 -203 -375 -385 -95 -133 -215 -257
-298 -308 -39 -24 -109 -31 -142 -13 -44 23 -52 129 -16 205 44 94 223 308
450 539 64 65 116 125 116 132 0 27 -28 26 -167 -2 -108 -23 -165 -29 -263
-29 -123 0 -160 7 -239 43 -30 14 -36 14 -43 1 -5 -7 -44 -79 -86 -159 -230
-429 -420 -652 -651 -763 -72 -35 -95 -41 -165 -45 -70 -3 -87 0 -126 20 -55
28 -74 63 -65 121 4 24 10 48 13 54 4 6 52 23 106 38 178 48 355 128 461 208
276 208 364 355 287 478 -91 142 -380 156 -647 30 -181 -86 -406 -286 -528
-468 -41 -62 -42 -63 -87 -63 -26 0 -50 3 -53 7 -9 9 17 52 182 298 78 115
141 219 141 231 0 48 -20 54 -185 54 l-155 0 -28 -32 c-16 -18 -42 -48 -58
-66 -35 -41 -50 -37 -86 23 -17 28 -42 52 -69 66 -118 60 -365 -4 -585 -151
-104 -69 -280 -248 -429 -435 -164 -206 -285 -327 -349 -348 -108 -36 -175
-11 -161 61 10 56 46 118 173 305 65 94 169 248 232 341 l113 170 -23 18 c-20
16 -42 18 -189 18 l-166 -1 -95 -142 c-203 -303 -386 -562 -434 -614 -83 -91
-221 -173 -292 -173 -35 0 -80 28 -93 58 -18 38 15 97 268 474 127 190 231
352 231 361 0 9 -6 19 -12 24 -7 4 -206 10 -443 13 l-430 5 -43 87 c-50 102
-108 165 -188 206 l-59 30 30 12 c61 23 244 119 332 174 244 151 414 319 493
489 141 301 27 532 -302 616 -154 40 -403 51 -668 30z m208 -180 c-2 -6 -60
-47 -128 -91 -275 -176 -505 -366 -672 -555 -244 -276 -455 -527 -600 -713
-57 -73 -105 -95 -248 -115 -168 -23 -404 -31 -468 -16 -152 37 -216 181 -166
375 80 314 560 672 1218 907 332 120 766 215 989 218 54 1 78 -2 75 -10z m372
-49 c34 -18 60 -67 69 -132 13 -95 -2 -179 -50 -278 -83 -169 -318 -359 -574
-465 -124 -51 -305 -83 -305 -53 0 34 438 576 590 729 121 122 221 209 242
209 5 0 18 -4 28 -10z m-769 -1215 c51 -18 96 -55 111 -93 5 -15 10 -70 10
-122 0 -124 -29 -248 -88 -368 -37 -77 -60 -108 -132 -181 -196 -196 -410
-330 -597 -371 -72 -17 -239 -14 -309 5 -69 18 -165 67 -195 99 l-21 23 87 83
c105 101 278 283 418 440 87 98 153 178 381 458 l35 42 128 0 c88 0 141 -5
172 -15z m4592 -336 c30 -16 37 -28 37 -67 0 -62 -101 -147 -286 -240 -84 -42
-181 -75 -195 -66 -17 10 -9 34 34 106 51 87 145 190 204 225 81 47 164 64
206 42z m-1393 -79 c51 -51 6 -173 -147 -403 -169 -254 -324 -372 -410 -312
-48 34 -38 177 19 271 91 150 321 400 408 442 57 28 104 28 130 2z m3403 9
c67 -31 58 -142 -21 -265 -92 -143 -331 -415 -393 -450 -13 -7 -43 -13 -66
-14 -34 0 -46 5 -67 31 -56 67 -20 182 119 374 125 174 243 287 333 320 47 17
65 18 95 4z"/>
</g>
</svg>
