<?xml version="1.0" standalone="no"?>
<!DOCTYPE svg PUBLIC "-//W3C//DTD SVG 20010904//EN"
 "http://www.w3.org/TR/2001/REC-SVG-20010904/DTD/svg10.dtd">
<svg version="1.0" xmlns="http://www.w3.org/2000/svg"
 width="725.000000pt" height="310.000000pt" viewBox="0 0 725.000000 310.000000"
 preserveAspectRatio="xMidYMid meet">

<g transform="translate(0.000000,310.000000) scale(0.100000,-0.100000)"
fill="#5E6D76" stroke="none">
<path d="M943 3053 l-253 -3 -15 -36 c-8 -20 -15 -44 -15 -53 0 -9 -11 -52
-26 -95 -33 -101 -30 -112 21 -76 168 122 298 185 488 236 31 8 57 20 57 25 0
5 -1 8 -2 7 -2 -2 -117 -4 -255 -5z"/>
<path d="M1750 3050 c-47 -6 -40 -12 30 -25 19 -4 46 -13 60 -20 14 -7 41 -19
60 -26 19 -7 44 -21 54 -31 11 -10 26 -18 33 -18 12 0 35 -14 97 -60 41 -30
165 -161 171 -180 4 -11 10 -20 14 -20 5 0 29 -42 54 -92 59 -122 103 -277
124 -434 l5 -41 -44 -12 c-105 -30 -409 -110 -468 -123 -57 -13 -854 -228
-857 -232 -5 -5 42 -123 62 -156 67 -106 159 -150 272 -129 106 19 175 75 240
194 l38 70 50 3 c28 1 201 11 386 22 184 11 365 20 401 20 l66 0 -23 -77 c-21
-68 -240 -853 -247 -883 -2 -8 102 -11 392 -11 l395 1 145 509 145 509 70 5
c38 4 71 5 72 3 2 -2 -9 -48 -24 -102 -24 -88 -28 -116 -28 -249 0 -142 2
-155 31 -235 38 -108 88 -184 170 -259 71 -65 194 -131 289 -157 81 -22 321
-30 427 -14 249 36 479 165 645 362 38 46 75 92 82 103 10 17 12 17 7 2 -28
-90 -125 -457 -126 -474 0 -10 82 -13 379 -13 353 0 380 1 385 18 7 22 83 297
106 382 10 36 43 155 73 265 31 110 65 236 75 280 29 122 72 278 82 300 4 11
11 31 15 45 31 124 80 307 110 410 20 69 48 168 61 220 37 139 63 228 85 288
10 29 19 55 19 57 0 3 -173 5 -385 5 -300 0 -387 -3 -390 -12 -2 -7 -43 -157
-90 -333 -48 -176 -93 -340 -100 -365 -16 -51 -42 -145 -57 -205 -28 -108 -41
-154 -56 -195 l-16 -45 -17 86 c-27 139 -77 236 -164 320 -51 49 -129 109
-142 109 -7 0 -13 4 -13 9 0 5 -15 14 -32 21 -18 7 -42 16 -53 20 -133 56
-449 65 -605 18 -64 -19 -145 -52 -175 -70 -16 -10 -38 -18 -47 -18 -10 0 -18
-3 -18 -8 0 -7 -9 -13 -66 -42 -16 -8 -35 -23 -42 -32 -7 -10 -19 -18 -26 -18
-7 0 -26 -12 -42 -27 -16 -16 -42 -39 -57 -52 l-27 -25 5 35 c8 45 27 112 36
124 4 6 10 27 14 49 l8 38 -137 -3 c-146 -4 -145 -4 -125 48 6 15 19 60 29 98
10 39 38 138 62 220 62 205 72 245 64 252 -6 6 -68 -9 -111 -28 -22 -9 -142
-48 -305 -99 -58 -18 -119 -39 -135 -46 -17 -7 -53 -18 -80 -24 -27 -6 -54
-15 -60 -19 -5 -5 -44 -19 -87 -32 -72 -22 -77 -25 -86 -59 -15 -50 -40 -140
-68 -243 -35 -129 -33 -127 -109 -127 -77 0 -76 -3 -39 119 32 109 57 196 84
291 11 41 26 91 32 109 27 85 36 144 25 155 -12 11 -965 16 -1057 6z m2827
-1030 c38 -14 63 -57 63 -109 l0 -42 -170 3 c-93 1 -170 4 -170 7 0 16 54 91
77 107 62 42 139 55 200 34z m643 -477 c0 -12 -49 -185 -53 -189 -4 -4 -186
33 -472 95 l-90 20 -50 -48 c-80 -76 -100 -86 -182 -86 -62 0 -75 3 -98 25
-15 14 -33 36 -40 50 -15 30 -29 116 -20 130 7 12 1005 14 1005 3z"/>
<path d="M6780 3054 c-34 -4 -47 -9 -107 -36 -82 -37 -163 -115 -204 -196 -20
-39 -24 -62 -24 -137 0 -103 11 -131 78 -198 78 -78 88 -83 195 -102 61 -11
86 -11 141 -1 115 22 240 97 285 170 10 17 22 33 25 36 4 3 16 32 28 65 19 58
23 118 11 160 -3 11 -9 32 -12 46 -11 49 -93 133 -156 159 -19 7 -37 17 -40
21 -7 10 -171 19 -220 13z"/>
<path d="M1247 2442 c-107 -39 -188 -149 -203 -275 l-7 -55 54 13 c30 7 104
26 164 43 61 17 142 38 180 47 111 26 118 30 112 68 -7 42 -58 120 -98 148
-42 29 -137 35 -202 11z"/>
<path d="M6481 2330 c-122 -5 -125 -5 -131 -30 -19 -65 -42 -149 -51 -185 -6
-22 -17 -62 -25 -90 -8 -27 -28 -108 -45 -180 -16 -71 -39 -154 -49 -185 -16
-49 -45 -158 -205 -771 -55 -208 -95 -311 -176 -446 -111 -184 -247 -308 -397
-363 -34 -13 -61 -24 -60 -26 2 -1 217 -4 478 -5 l475 -4 58 27 c77 36 155
112 194 190 18 34 47 113 64 173 44 160 90 326 99 360 4 17 48 176 97 355 87
315 117 427 134 500 4 19 20 76 34 125 37 125 45 155 55 195 4 19 13 49 19 65
6 17 25 84 42 150 17 66 34 125 36 132 5 14 -418 22 -646 13z"/>
<path d="M2370 1548 c0 -21 -75 -162 -127 -240 -121 -179 -274 -313 -468 -408
-61 -30 -148 -66 -195 -81 -47 -15 -78 -28 -70 -29 33 -3 673 0 677 3 6 6 213
737 213 753 0 8 -7 14 -15 14 -8 0 -15 -5 -15 -12z"/>
<path d="M137 1143 c-48 -169 -87 -319 -87 -333 l0 -25 405 0 c222 0 401 3
397 7 -4 3 -36 18 -72 33 -230 96 -426 293 -510 514 -49 127 -36 146 -133
-196z"/>
</g>
</svg>
