<?xml version="1.0" standalone="no"?>
<!DOCTYPE svg PUBLIC "-//W3C//DTD SVG 20010904//EN"
 "http://www.w3.org/TR/2001/REC-SVG-20010904/DTD/svg10.dtd">
<svg version="1.0" xmlns="http://www.w3.org/2000/svg"
 width="1788.000000pt" height="669.000000pt" viewBox="0 0 1788.000000 669.000000"
 preserveAspectRatio="xMidYMid meet">

<g transform="translate(0.000000,669.000000) scale(0.100000,-0.100000)"
fill="#5E6D76" stroke="none">
<path d="M13701 6668 c-93 -32 -130 -71 -200 -219 -193 -404 -538 -1418 -846
-2490 -169 -585 -216 -802 -305 -1414 -27 -187 -59 -370 -71 -405 -84 -259
-262 -422 -464 -423 -214 -1 -338 183 -338 503 0 310 114 596 313 783 128 122
248 162 391 133 89 -19 168 -20 204 -4 53 24 72 115 39 184 -58 121 -275 214
-501 214 -127 0 -206 -17 -310 -65 -103 -48 -183 -107 -281 -209 -179 -186
-302 -439 -364 -748 -19 -95 -23 -143 -22 -303 1 -171 4 -200 27 -286 52 -198
105 -297 222 -414 91 -92 181 -142 302 -169 189 -42 389 -4 638 122 147 74
181 75 291 9 187 -113 298 -151 471 -163 274 -18 558 105 643 280 31 66 26
158 -13 209 -75 98 -134 105 -279 34 -113 -55 -180 -72 -252 -63 -96 12 -162
71 -194 176 -26 84 -23 326 7 500 51 301 154 667 387 1375 335 1017 332 1008
752 2030 191 465 224 558 225 635 1 90 -22 135 -93 178 -54 32 -55 32 -185 32
-106 -1 -142 -5 -194 -22z"/>
<path d="M4310 6523 c-773 -86 -2029 -676 -3200 -1501 -274 -193 -450 -332
-868 -680 -191 -160 -242 -231 -242 -341 0 -87 40 -161 145 -267 95 -96 180
-143 273 -151 131 -12 162 10 707 517 591 550 722 657 1360 1115 563 404 1045
666 1425 775 251 73 437 91 555 56 79 -24 143 -86 175 -171 44 -117 38 -356
-16 -650 -53 -289 -197 -809 -365 -1315 l-21 -65 -112 -49 c-342 -152 -582
-252 -666 -278 -176 -55 -213 -84 -245 -191 -22 -75 -20 -231 4 -284 51 -112
123 -94 744 192 55 25 60 25 83 10 39 -25 37 -45 -28 -239 -158 -474 -410
-1055 -826 -1901 -313 -638 -355 -727 -398 -838 -30 -77 -33 -92 -24 -125 5
-21 22 -50 37 -64 54 -52 86 -58 293 -58 219 0 243 7 331 89 55 52 77 98 349
731 440 1024 723 1765 935 2448 60 194 86 246 143 286 67 46 509 179 852 256
398 89 438 110 493 258 17 46 21 80 21 177 1 105 -2 126 -22 166 l-23 47 -92
-28 c-51 -15 -189 -58 -307 -95 -422 -132 -735 -225 -756 -225 -56 0 -67 62
-33 200 199 826 253 1367 168 1698 -68 268 -247 445 -493 487 -81 14 -267 18
-356 8z"/>
<path d="M16585 4221 c-142 -35 -282 -205 -330 -401 -25 -100 -30 -306 -11
-421 15 -93 15 -98 -5 -158 -192 -567 -1170 -1479 -1593 -1484 -79 -1 -127 20
-161 72 -38 56 -37 121 1 191 59 108 191 187 401 239 133 33 224 71 290 120
125 92 147 223 51 305 -49 43 -78 49 -343 82 -358 43 -784 125 -850 163 -16 9
-38 34 -49 55 -16 32 -17 44 -7 76 6 21 25 50 42 64 55 47 82 48 421 25 423
-28 663 -30 743 -6 151 47 252 130 315 262 46 97 60 159 60 269 l0 84 -82 -19
c-192 -43 -447 -90 -566 -104 -70 -8 -266 -19 -437 -24 -330 -10 -438 -24
-618 -76 -163 -47 -292 -119 -374 -208 -172 -187 -140 -472 71 -621 122 -87
234 -133 499 -206 99 -27 188 -57 199 -66 12 -12 18 -28 16 -48 -3 -26 -20
-42 -128 -117 -154 -107 -248 -197 -286 -276 -27 -54 -29 -67 -29 -174 0 -113
1 -117 37 -190 65 -131 190 -232 348 -281 67 -21 93 -23 255 -22 206 1 307 18
510 85 452 149 888 506 1203 984 58 88 143 218 190 288 47 71 95 135 108 144
46 30 96 28 167 -6 69 -33 113 -75 124 -119 9 -37 -16 -100 -98 -252 -149
-276 -193 -442 -153 -581 39 -136 166 -246 354 -307 293 -95 591 -24 796 190
84 87 108 136 109 220 0 75 -16 105 -76 146 -47 33 -76 25 -195 -47 -189 -117
-297 -126 -397 -32 -42 38 -57 73 -57 131 0 100 52 204 199 398 162 214 173
231 178 271 11 82 -45 147 -277 319 -85 63 -185 145 -222 183 -93 94 -101 129
-74 324 25 175 29 257 16 321 -23 110 -71 172 -170 218 -58 27 -67 28 -115 17z"/>
<path d="M17483 3952 c-205 -74 -270 -322 -126 -483 65 -72 126 -99 223 -99
89 0 156 27 215 85 108 109 115 293 15 407 -82 94 -215 130 -327 90z m195 -47
c47 -20 108 -78 135 -130 15 -28 21 -59 21 -105 1 -276 -371 -357 -485 -105
-25 54 -25 157 0 210 22 48 97 118 143 132 50 16 144 15 186 -2z"/>
<path d="M17460 3671 l0 -171 30 0 30 0 0 65 0 65 44 0 c61 0 87 -23 93 -83 5
-45 8 -48 32 -45 14 2 25 6 24 11 -2 4 -3 27 -3 52 0 34 -6 51 -22 68 l-23 22
28 27 c29 28 34 61 16 101 -16 36 -53 49 -156 55 l-93 5 0 -172z m180 99 c44
-44 8 -90 -70 -90 l-50 0 0 55 0 55 50 0 c37 0 55 -5 70 -20z"/>
<path d="M7516 3659 c-238 -61 -333 -70 -861 -79 -499 -9 -583 -16 -775 -65
-321 -83 -484 -271 -443 -511 38 -221 246 -376 613 -458 63 -14 156 -30 205
-37 149 -19 158 -45 52 -157 -189 -200 -267 -350 -267 -512 1 -153 53 -284
149 -372 93 -85 216 -127 374 -128 193 0 346 63 582 242 83 63 215 163 295
223 80 61 212 153 293 205 82 52 228 149 325 215 322 219 375 246 431 216 40
-22 42 -50 10 -190 -63 -282 -73 -412 -44 -551 18 -87 44 -139 93 -188 60 -60
124 -86 212 -87 93 0 134 19 242 113 102 90 147 145 295 362 70 102 170 244
222 316 53 72 127 175 165 228 79 109 180 212 220 222 39 9 73 -18 87 -68 13
-48 9 -78 -41 -363 -40 -226 -47 -451 -17 -550 60 -194 172 -279 399 -305 100
-12 273 1 354 25 66 19 140 68 164 107 22 36 26 97 9 131 -15 29 -59 76 -84
90 -11 6 -82 14 -157 17 -134 5 -138 6 -165 33 -27 26 -28 31 -27 120 2 107
17 177 112 532 104 389 116 453 117 630 0 149 0 150 -31 204 -24 42 -44 62
-94 93 -85 51 -146 68 -244 68 -252 0 -480 -179 -854 -672 -129 -169 -160
-198 -207 -198 -52 0 -95 44 -139 142 -62 139 -70 152 -105 175 -54 36 -106
46 -221 40 -165 -8 -366 -68 -605 -181 -141 -67 -275 -151 -544 -339 -478
-334 -658 -444 -806 -492 -107 -35 -163 -31 -207 13 -39 39 -48 102 -22 158
26 56 128 153 202 192 35 19 141 62 235 97 219 80 274 105 346 155 78 55 105
104 98 176 -6 63 -40 128 -80 158 -34 25 -103 25 -329 2 -406 -43 -655 -41
-891 4 -164 32 -205 46 -222 80 -33 64 -7 142 58 173 54 26 109 30 257 18 74
-6 340 -16 590 -22 519 -14 556 -11 674 50 132 68 197 187 195 355 -1 88 -18
178 -34 181 -5 1 -77 -15 -159 -36z"/>
</g>
</svg>
