<svg width="350" height="131" xmlns="http://www.w3.org/2000/svg" preserveAspectRatio="xMidYMid meet">
 <g>
  <g id="svg_1" fill="#5E6D76" transform="translate(0,131) scale(0.10000000149011612,-0.10000000149011612) ">
   <path id="svg_2" d="m107,1272c-15,-9 -36,-35 -47,-58c-19,-39 -20,-63 -20,-560c0,-488 2,-521 19,-561c37,-79 -112,-73 1691,-73c1759,0 1645,-4 1686,57c18,26 19,57 22,558c3,592 3,594 -62,635c-33,20 -40,20 -1647,20c-1510,-1 -1616,-2 -1642,-18zm3270,-32c21,-13 35,-31 42,-57c7,-24 11,-218 11,-538c0,-456 -2,-503 -18,-535c-9,-19 -28,-40 -42,-47c-20,-10 -364,-13 -1618,-13c-1718,0 -1634,-3 -1662,49c-6,13 -10,207 -10,558c0,495 2,540 18,559c9,12 26,26 37,32c14,8 474,11 1615,12c1562,0 1596,0 1627,-20z"/>
   <path id="svg_3" d="m172,1168c-17,-17 -17,-1019 0,-1036c9,-9 373,-12 1574,-12c1407,0 1564,2 1578,16c14,14 16,74 16,518c0,377 -3,505 -12,514c-17,17 -3139,17 -3156,0zm428,-353l0,-295l125,0l125,0l0,-75l0,-75l-232,2l-233,3l-3,368l-2,367l110,0l110,0l0,-295zm741,102c47,-19 77,-59 83,-110c3,-23 7,-131 8,-240l3,-198l-90,3c-84,3 -90,4 -93,25l-3,22l-35,-24c-72,-49 -180,-51 -245,-4c-39,28 -63,96 -54,156c5,37 15,56 44,83c35,34 62,45 204,85c70,20 90,48 63,90c-32,49 -116,23 -116,-37c0,-16 -11,-18 -95,-18l-95,0l0,25c0,67 63,134 146,154c55,14 231,7 275,-12zm570,12c21,-7 51,-25 66,-41l28,-29l0,-242l0,-242l-92,-3l-93,-3l0,193c0,106 -3,203 -6,216c-8,27 -44,38 -73,23c-20,-11 -21,-21 -23,-219l-3,-207l-92,-3l-93,-3l0,281l0,281l88,-3c87,-3 87,-3 90,-31c3,-27 3,-27 20,-7c18,23 83,49 121,50c13,0 41,-5 62,-11zm584,-19c77,-39 89,-63 93,-186l4,-104l-161,0l-161,0l0,-55c0,-61 22,-95 63,-95c35,0 49,15 56,56l6,39l93,3l92,3l0,-36c0,-77 -49,-138 -134,-165c-24,-8 -75,-11 -135,-8c-79,3 -104,8 -140,28c-79,45 -86,60 -89,230c-2,83 1,165 7,187c24,88 120,135 266,130c72,-2 101,-8 140,-27zm360,-160l31,-175l23,125c12,69 28,148 34,175l12,50l88,3c77,2 87,1 87,-14c0,-30 -140,-566 -159,-609c-38,-85 -93,-115 -213,-115l-68,0l0,60c0,60 0,60 29,60c44,0 61,10 61,34c0,11 -33,146 -73,298c-41,153 -71,280 -68,283c3,3 46,4 95,3l90,-3l31,-175z"/>
   <path id="svg_4" d="m1165,607c-46,-26 -73,-72 -58,-96c5,-9 22,-22 38,-30c56,-27 95,16 95,105c0,52 -13,56 -75,21z"/>
   <path id="svg_5" d="m1165,607c-90,-26 -73,-72 -58,-96c5,-9 22,-22 38,-30c56,-27 95,16 95,105c0,52 -13,56 -75,21z"/>
  </g>
  <path id="svg_6" d="m227.749287,59.718828l10.753562,-0.211184c0.241276,0.211184 0.719313,-12.288647 -4.539088,-12.288647c-5.258401,0 -6.214474,12.499831 -6.214474,12.499831z" fill="#5E6D76"/>
 </g>
</svg>