<?xml version="1.0" standalone="no"?>
<!DOCTYPE svg PUBLIC "-//W3C//DTD SVG 20010904//EN"
 "http://www.w3.org/TR/2001/REC-SVG-20010904/DTD/svg10.dtd">
<svg version="1.0" xmlns="http://www.w3.org/2000/svg"
 width="444.000000pt" height="113.000000pt" viewBox="0 0 444.000000 113.000000"
 preserveAspectRatio="xMidYMid meet">

<g transform="translate(0.000000,113.000000) scale(0.100000,-0.100000)"
fill="#5E6D76" stroke="none">
<path d="M873 1108 c-40 -44 -97 -144 -181 -317 -266 -553 -301 -615 -377
-658 -56 -32 -115 -30 -154 3 -26 22 -31 33 -31 70 0 62 36 99 86 91 44 -7 64
0 64 24 0 51 -150 75 -207 33 -54 -40 -68 -70 -68 -143 0 -57 4 -74 28 -109
70 -106 245 -121 369 -32 65 46 122 122 206 272 59 107 62 111 56 68 -3 -25
-21 -113 -40 -195 -40 -176 -41 -191 -13 -206 18 -9 26 -6 56 23 28 27 157
210 198 283 8 13 11 -15 10 -101 0 -171 22 -206 134 -206 54 0 142 30 157 53
7 12 44 12 44 0 0 -5 21 -19 46 -31 51 -25 119 -23 173 5 28 14 33 14 63 -5
43 -26 62 -25 127 5 66 31 139 106 251 259 47 63 88 115 93 116 16 0 5 -20
-38 -72 -63 -77 -115 -180 -115 -229 0 -32 7 -47 31 -71 28 -29 33 -30 86 -25
35 4 80 18 116 37 l60 31 32 -31 c67 -65 156 -60 272 15 37 25 70 45 73 45 4
0 4 -15 2 -34 -3 -25 2 -40 17 -55 48 -48 85 -15 166 154 44 92 63 121 107
159 46 40 78 57 78 41 0 -3 -27 -59 -60 -125 -69 -138 -73 -168 -31 -211 42
-41 90 -40 161 5 l55 35 25 -23 c58 -54 123 -61 209 -21 l54 26 27 -26 c40
-39 82 -34 162 20 37 25 70 45 73 45 3 0 5 -7 5 -16 0 -9 15 -31 34 -50 25
-25 43 -34 68 -34 40 0 119 36 173 80 37 29 41 30 50 14 21 -38 63 -73 102
-84 37 -11 46 -10 94 13 71 32 128 84 178 158 44 65 51 96 25 106 -12 4 -35
-15 -81 -66 -61 -67 -123 -111 -157 -111 -20 0 -46 39 -46 68 0 39 27 74 98
127 37 28 112 95 167 150 106 106 157 185 189 294 20 67 20 66 0 85 -40 41
-127 -3 -260 -133 -88 -87 -140 -157 -230 -313 -107 -183 -193 -278 -252 -278
-29 0 -45 35 -39 84 6 46 18 58 146 151 128 92 227 203 284 319 26 53 50 109
53 125 7 36 -17 61 -59 61 -110 0 -352 -251 -469 -484 -56 -113 -98 -175 -140
-205 -91 -67 -90 -25 2 159 71 142 78 164 59 175 -20 13 -84 7 -93 -8 -9 -13
-13 -13 -34 1 -37 24 -120 20 -178 -9 -62 -29 -180 -147 -221 -219 -29 -53
-102 -130 -123 -130 -5 0 18 53 51 117 57 108 61 121 57 170 -8 90 -53 115
-132 72 -21 -11 -40 -18 -42 -16 -2 2 28 79 67 171 39 91 69 176 67 189 -2 18
-10 23 -44 25 -25 2 -45 -2 -51 -10 -6 -7 -48 -92 -93 -188 -176 -380 -159
-349 -225 -398 l-60 -44 -8 43 c-5 24 -15 66 -22 93 l-13 48 44 60 c24 33 44
64 44 69 0 13 -43 39 -65 39 -25 0 -76 -52 -212 -215 -125 -149 -187 -210
-235 -230 -55 -22 -68 -20 -68 13 0 31 43 103 128 215 81 106 80 147 -4 147
-24 0 -44 1 -44 3 0 1 9 26 20 55 30 79 27 117 -14 158 -19 19 -43 34 -54 34
-26 0 -84 -40 -100 -70 -13 -25 -11 -126 3 -197 6 -27 0 -42 -46 -110 -84
-121 -219 -256 -219 -218 0 3 35 74 77 159 67 135 75 156 63 171 -10 13 -23
15 -49 10 -46 -8 -63 -8 -133 1 -51 6 -64 3 -123 -24 -81 -39 -157 -112 -213
-209 -47 -80 -98 -128 -156 -145 -36 -11 -40 -10 -58 13 -18 21 -20 35 -16
104 9 147 89 331 283 654 64 106 115 201 113 210 -2 10 -15 17 -35 19 -29 3
-42 -6 -124 -90 -115 -117 -184 -201 -317 -386 l-105 -147 6 76 c8 97 56 281
101 387 46 110 51 135 31 156 -23 22 -48 20 -72 -6z m3086 -465 c-46 -71 -195
-231 -205 -220 -10 10 85 137 165 219 41 43 77 76 79 73 3 -2 -15 -35 -39 -72z
m345 45 c-35 -67 -93 -145 -153 -202 -34 -32 -64 -56 -68 -53 -14 15 202 287
228 287 5 0 2 -15 -7 -32z m-2341 -49 c7 -25 -8 -69 -23 -69 -11 0 -14 73 -3
83 12 12 21 7 26 -14z m-406 -274 c-9 -86 -61 -169 -136 -217 -69 -44 -111
-36 -111 21 0 10 14 45 30 79 34 66 134 168 172 174 44 7 51 -1 45 -57z m1778
32 c8 -31 -25 -124 -63 -179 -51 -75 -137 -122 -166 -93 -32 33 -8 116 56 197
69 87 160 127 173 75z m-1007 -179 c5 -65 -9 -105 -43 -120 -23 -10 -29 -9
-52 14 -33 33 -27 57 28 127 49 61 60 57 67 -21z"/>
</g>
</svg>
