<svg width="2000" height="600" xmlns="http://www.w3.org/2000/svg" preserveAspectRatio="xMidYMid meet">

 <g>
  <title>background</title>
  <rect fill="none" id="canvas_background" height="602" width="2002" y="-1" x="-1"/>
 </g>
 <g>
  <title>Layer 1</title>
  <path fill="#5e6d76" id="svg_17" d="m109.99998,33.698893c-15.1,1.6 -35.700001,10.2 -47.800001,19.8c-18.2,14.6 -30.2,37.600001 -33.1,63.800001c-1.4,12.6 -1.5,279.600004 -0.1,291.700004c4.4,38.800001 27.1,68.100001 61.500001,79.500001c15.5,5.1 6.2,4.8 175.900003,5.4l157.900002,0.6l1.2,3.5c4.2,12 13.9,26.9 24.7,37.800001c16.3,16.4 37.300001,26.6 62.300001,30.2c4.6,0.6 171.900003,1 481.000007,1c520.900008,0 483.400007,0.4 502.800007,-6c16.7,-5.6 33.3,-16.2 43.800001,-27.9c7.3,-8.1 16.4,-22.2 20.1,-31.2l3.2,-7.8l157.500002,-0.4c157.300002,-0.3 157.600002,-0.3 166.300002,-2.4c36.100001,-9 59.800001,-32.6 69.100001,-69.000001l2.2,-8.8l0,-149.000002c0,-118.400002 -0.3,-150.300002 -1.3,-155.500002c-7.5,-37.700001 -30.7,-62.800001 -67.200001,-72.900001l-9.5,-2.6l-883.500013,-0.1c-485.900007,0 -885.100013,0.1 -887.000013,0.3zm1761.000026,27.3c17.9,1.9 30.5,7.5 41.500001,18.5c10.7,10.7 16.4,23.1 18.5,40.500001c1.4,11.4 1.4,274.200004 0,286.400004c-2.9,24.7 -14.6,42.400001 -34.400001,52.100001c-16.3,7.9 -5.8,7.5 -175.800003,7.5l-151.300002,0l-0.1,-15.8c-0.2,-14 -0.5,-17 -3.2,-27.4c-11.6,-44.900001 -45.200001,-75.400001 -89.800001,-81.800001c-5.8,-0.8 -137.600002,-1 -487.900007,-0.8l-480.000007,0.3l-10,2.8c-49.400001,13.7 -80.500001,55.600001 -80.900001,109.000002l-0.1,13.7l-154.500002,-0.2l-154.500002,-0.3l-8,-2.7c-20.6,-7 -34.200001,-20.6 -41.300001,-41.300001l-2.7,-8l-0.3,-146.500002c-0.3,-163.600002 -0.6,-155.100002 6.7,-170.500003c2.1,-4.4 5.9,-10.6 8.4,-13.7c9.4,-11.4 26.4,-19.9 43.700001,-21.7c11.3,-1.2 1744.400026,-1.3 1756.000026,-0.1zm-391.900006,308.300005c37.000001,9.3 59.900001,37.400001 63.400001,77.700001c0.7,8.1 -0.7,21.8 -3.1,31.5c-2.2,8.6 -10.4,25 -16.1,32c-9.4,11.6 -24.4,21.3 -39.300001,25.4c-4.1,1.2 -12.4,2.6 -18.5,3.1c-15,1.3 -929.000014,1.3 -944.000014,0c-11.8,-1.1 -21.3,-3.4 -30,-7.4c-23.5,-10.7 -39.900001,-32.6 -45.000001,-60.100001c-2.5,-13.2 -1.7,-32.9 1.9,-45.000001c9.8,-32.8 33.700001,-53.500001 67.400001,-58.400001c3.1,-0.5 219.700003,-0.8 481.200007,-0.7c441.200007,0.2 476.000007,0.3 482.100007,1.9z"/>
  <path fill="#5e6d76" id="svg_18" d="m1336.999999,91.098894l-24.5,5l-18,-2.6c-9.9,-1.4 -24.5,-3.2 -32.5,-4.1c-19.8,-2.1 -70.000001,-3 -86.900001,-1.5c-66.800001,5.9 -100.500001,28.8 -100.500001,68.100001c0,23.3 12.3,40.100001 38.900001,53.000001c25.1,12.3 53.800001,19.1 106.500002,25.5c11.8,1.4 31,3.7 42.500001,5.1c34.600001,4.2 47.800001,7.9 50.400001,14.2c3.6,8.6 -5.4,16.6 -23.4,20.8c-9.9,2.4 -42.900001,2.7 -57.000001,0.6c-42.400001,-6.4 -87.500001,-21.1 -133.600002,-43.800001c-9.4,-4.6 -17.3,-8.4 -17.5,-8.4c-0.2,0 -0.4,18.9 -0.4,42.100001c0,39.600001 0.1,42.000001 1.8,41.500001c0.9,-0.3 12.8,-4 26.4,-8.2l24.8,-7.7l19.7,3.6c46.700001,8.7 72.200001,11.2 115.300002,11.2c27.1,0 35.700001,-0.4 45.000001,-1.8c50.800001,-7.9 78.200001,-25.8 86.000001,-56.300001c2.4,-9.4 2.6,-22 0.4,-29.5c-5.8,-19.8 -28,-34.900001 -65.300001,-44.400001c-23.1,-5.8 -48.500001,-9.4 -102.600002,-14.5c-37.300001,-3.5 -51.500001,-5.3 -61.900001,-8c-18.4,-4.7 -21.9,-10.2 -12.3,-19.5c6,-5.9 13.8,-9.4 26.8,-12.2c11.8,-2.5 47.700001,-2.5 63.400001,0c34.300001,5.6 72.900001,18.9 102.900002,35.300001c5.4,3 10.3,5.4 10.7,5.4c0.5,0 0.9,-16.7 0.9,-37.000001c0,-20.4 -0.3,-37.000001 -0.7,-36.900001c-0.5,0.1 -11.8,2.3 -25.3,5z"/>
  <path fill="#5e6d76" id="svg_19" d="m182.199981,97.198894c0.2,0.6 14.8,12 32.4,25.3l31.9,24.2l0.2,49.900001l0.3,49.900001l-33.2,25l-33.2,25l82.400001,0.3c45.300001,0.1 82.600001,0 82.900001,-0.3c0.3,-0.3 -10.6,-11.7 -24.2,-25.3l-24.7,-24.7l0.2,-49.000001l0.3,-48.900001l40.900001,74.200001l41.000001,74.200001l16.9,-0.2l16.9,-0.3l23.2,-42.000001c12.8,-23.1 31.2,-56.400001 40.900001,-74.000001l17.7,-32l0,49.100001l0,49.000001l-27.5,24.4c-15.1,13.4 -27.5,24.8 -27.5,25.2c0,0.4 49.800001,0.8 110.800002,0.8l110.700002,-0.1l-3,-2.4c-1.6,-1.4 -16.6,-12.8 -33.2,-25.3l-30.2,-22.7l-0.1,-49.700001l0,-49.700001l32.5,-24.6c17.9,-13.5 32.5,-25 32.5,-25.6c0,-0.6 -39.300001,-0.8 -107.200002,-0.7l-107.300002,0.3l-19.5,37.700001c-11.4,22 -19.9,37.300001 -20.4,36.800001c-0.5,-0.5 -10.2,-17.5 -21.5,-37.700001l-20.6,-36.800001l-90.800001,-0.3c-69.700001,-0.2 -90.800001,0.1 -90.500001,1z"/>
  <path fill="#5e6d76" id="svg_20" d="m677.999989,96.798894c0,0.5 14.6,11.9 32.5,25.3l32.4,24.4l0.1,50.100001l0,50.100001l-31.4,23.6c-17.2,13 -31.9,24.3 -32.6,25.2c-1.1,1.3 18.6,1.5 189.400003,1.5l190.600003,0l0,-42.000001c0,-23.1 -0.3,-42.000001 -0.6,-42.000001c-0.3,0 -15.4,11.2 -33.600001,25l-33.1,25l-73.900001,0l-73.800001,0l0,-24.5l0,-24.5l49.600001,0l49.600001,0l15.2,8c8.4,4.4 15.8,8 16.4,8c0.9,0 1.2,-8.9 1.2,-33.5c0,-18.4 -0.2,-33.5 -0.5,-33.5c-0.3,0 -8.2,3.8 -17.5,8.5l-17,8.5l-48.500001,0l-48.500001,0l0,-25l0,-25l73.800001,0l73.700001,0.1l32.9,24.9c18.1,13.8 33.3,25 33.800001,25c0.4,0 0.8,-18.9 0.8,-42.000001l0,-42.000001l-190.500003,0c-104.800002,0 -190.500003,0.4 -190.500003,0.8z"/>
  <path fill="#5e6d76" id="svg_21" d="m1472.000001,96.698894c0.1,0.5 8.2,7.5 18.1,15.8c9.9,8.2 18.6,15.7 19.4,16.5c1.2,1.3 -4.1,10.3 -39.500001,67.500001l-40.900001,66.000001l-19.3,16.3c-10.6,8.9 -19.4,16.7 -19.6,17.2c-0.3,0.7 27.9,1 81.800001,1c48.900001,0 82.000001,-0.4 81.800001,-0.9c-0.1,-0.5 -9.4,-8 -20.5,-16.6c-11.2,-8.7 -20.3,-16.2 -20.3,-16.7c0,-0.5 1.8,-4.2 4.1,-8.3l4.1,-7.5l53.300001,0l53.400001,0l4.4,7.7c2.4,4.3 4.2,8.1 4,8.5c-0.2,0.3 -11.6,7.7 -25.3,16.4c-13.8,8.6 -25.3,16.1 -25.6,16.5c-0.3,0.5 49.100001,0.9 110.300002,0.9c109.400002,0 110.700002,0 108.800002,-1.9c-1.1,-1.1 -10.8,-8.8 -21.5,-17.1l-19.5,-15.1l-41.600001,-66.200001l-41.700001,-66.200001l16.4,-16.5c9,-9.1 16.4,-16.9 16.4,-17.3c0,-0.4 -54.200001,-0.7 -120.500002,-0.7c-66.300001,0 -120.500002,0.3 -120.500002,0.7zm119.000002,83.800001c8.8,15.9 15.8,29 15.7,29.2c-0.2,0.2 -14.8,0.2 -32.5,0.1l-32.1,-0.3l16.2,-29.2c8.9,-16.1 16.3,-29 16.5,-28.9c0.1,0.2 7.5,13.3 16.2,29.1z"/>
  <path fill="#5e6d76" id="svg_22" d="m578.999987,452.998899l0,34.000001l12,0l12,0l0.2,-23l0.3,-23l19.9,23l19.9,23l18.3,0l18.4,0l0,-34.000001l0,-34.000001l-12,0l-12,0l-0.2,23.2l-0.3,23.3l-20,-23.2l-20,-23.2l-18.2,0l-18.3,-0.1l0,34.000001z"/>
  <path fill="#5e6d76" id="svg_23" d="m803.999991,452.998899l0,34.000001l12.5,0l12.5,0l0,-34.000001l0,-34.000001l-12.5,0l-12.5,0l0,34.000001z"/>
  <path fill="#5e6d76" id="svg_24" d="m952.999993,452.998899l0,34.000001l44.000001,0l44.000001,0l0,-8.5l0,-8.5l-31.5,0l-31.5,0l0,-4.5l0,-4.5l29,0l29,0l0,-8l0,-8l-29,0l-29,0l0,-4.5l0,-4.5l30.5,0l30.5,0l0,-8.5l0,-8.5l-43.000001,0l-43.000001,0l0,34.000001z"/>
  <path fill="#5e6d76" id="svg_25" d="m1293.999998,452.998899l0,34.000001l12,0l12,0l0.2,-23l0.3,-23l19.9,23l19.9,23l18.3,0l18.4,0l0,-34.000001l0,-34.000001l-12,0l-12,0l-0.2,23.2l-0.3,23.2l-20,-23.1l-20,-23.2l-18.2,0l-18.3,-0.1l0,34.000001z"/>
  <path fill="#5e6d76" id="svg_26" d="m479.999986,453.498899l0,33.5l43.500001,0l43.500001,0l0,-8.5l0,-8.5l-31,0l-31,0l0,-5l0,-5l29,0l29,0l0,-7l0,-7l-29,0l-29,0l0,-5l0,-5l30.5,0l30.5,0l0,-8l0,-8l-43.000001,0l-43.000001,0l0,33.5z"/>
  <path fill="#5e6d76" id="svg_27" d="m707.099989,421.698899c-3.6,1.1 -6.8,3 -9.2,5.4c-5.1,5.1 -6.2,10.6 -5.7,29.4c0.3,14.2 0.4,15.2 3,19.7c3.2,5.3 8.2,8.2 17.3,9.9c8.4,1.5 63.900001,0.7 68.500001,-1c9,-3.5 11,-7.9 11,-24.6l0,-12.5l-26.5,0l-26.5,0l0,7l0,7l14.5,0c13.8,0 14.5,0.1 14.5,2c0,3.9 -3.3,5.8 -11.6,6.5c-9.4,0.9 -30.9,0.1 -34.500001,-1.3c-4,-1.6 -5.1,-5.7 -4.7,-17.6c0.5,-15.4 -0.2,-15 23.6,-15.4c21,-0.4 25.8,0.4 26.8,4.3c0.6,2.5 0.7,2.5 12.6,2.5l12.1,0l-0.7,-5.7c-0.9,-7.4 -3.6,-11.6 -9.4,-14.5c-4.6,-2.2 -5.4,-2.3 -37.200001,-2.5c-27.5,-0.2 -33.3,0 -37.900001,1.4z"/>
  <path fill="#5e6d76" id="svg_28" d="m840.999991,453.498899l0,33.5l11.5,0l11.5,0l0.2,-23.9l0.3,-23.9l20.5,23.8l20.5,23.9l17.8,0l17.7,0.1l0,-33.5l0,-33.5l-11.5,0l-11.5,0l-0.2,23.7l-0.3,23.7l-20.5,-23.7l-20.4,-23.7l-17.8,0l-17.8,0l0,33.5z"/>
  <path fill="#5e6d76" id="svg_29" d="m1052.999994,453.498899l0,33.5l43.500001,0l43.500001,0l0,-8.5l0,-8.5l-31.5,0l-31.5,0l0,-5l0,-5l29,0l29,0l0,-7l0,-7l-29,0l-29,0l0,-5l0,-5l30.5,0l30.5,0l0,-8l0,-8l-42.500001,0l-42.500001,0l0,33.5z"/>
  <path fill="#5e6d76" id="svg_30" d="m1151.999996,453.498899l0,33.5l12,0l12,0l0,-8.5l0,-8.5l20.5,0c24.6,0 24.5,-0.1 24.5,10.5l0,6.5l12,0l12,0l0,-8.9c0,-7.5 -0.3,-9.3 -2.3,-12.2c-1.3,-1.9 -3.7,-3.9 -5.5,-4.4l-3.2,-1.1l3.6,-1.3c6.4,-2.3 9.2,-9.9 7.9,-21.7c-0.8,-7.8 -3.5,-12.1 -9.5,-15.2c-4.4,-2.2 -4.9,-2.2 -44.200001,-2.2l-39.800001,0l0,33.5zm67.800001,-14.9c1.7,1.2 2.2,2.5 2.2,5.9c0,7.4 -0.2,7.5 -24.6,7.5l-21.4,0l0,-7.5l0,-7.5l20.8,0c17.2,0 21.1,0.3 23,1.6z"/>
  <path fill="#5e6d76" id="svg_31" d="m1257.999997,453.498899l0,33.5l12,0l12,0l0,-33.5l0,-33.5l-12,0l-12,0l0,33.5z"/>
  <path fill="#5e6d76" id="svg_32" d="m1422.1,421.698899c-3.6,1.1 -6.8,3 -9.2,5.4c-5.1,5.1 -6.2,10.6 -5.7,29.4c0.3,14.2 0.4,15.2 3,19.7c3.2,5.3 8.2,8.2 17.3,9.9c8.4,1.5 63.900001,0.7 68.500001,-1c9,-3.5 11,-7.9 11,-24.6l0,-12.5l-26.5,0l-26.5,0l0,7l0,7l14.5,0c13.8,0 14.5,0.1 14.5,2c0,3.7 -3.4,5.8 -10.6,6.6c-8.8,0.9 -33.600001,-0.1 -36.100001,-1.5c-3.5,-1.8 -4.5,-6.2 -4.1,-17.5c0.5,-15.4 -0.2,-15 23.6,-15.4c21,-0.4 25.8,0.4 26.8,4.3c0.6,2.5 0.7,2.5 12.6,2.5l12.1,0l-0.7,-5.7c-0.9,-7.4 -3.6,-11.6 -9.4,-14.5c-4.6,-2.2 -5.4,-2.3 -37.200001,-2.5c-27.5,-0.2 -33.3,0 -37.900001,1.4z"/>
  <path fill="#5e6d76" id="svg_33" d="m1588.800002,503.0989c-8.2,1.3 -15,6.8 -18.7,14.9c-3,6.6 -2.9,17.8 0.3,24.600001c2.7,5.9 9,11.6 14.5,13.2c4.8,1.5 14.4,1.5 19.500001,0.1c4.8,-1.3 12.3,-8.2 14.7,-13.4c2.6,-5.600001 2.6,-19.400001 0,-25.000001c-4.9,-10.9 -16.9,-16.6 -30.300001,-14.4zm14.700001,9.3c8.7,5.1 12.2,18.3 7.2,27c-1.2,2.2 -2.6,4.100001 -3.2,4.300001c-0.5,0.1 -2.4,-2.300001 -4.1,-5.500001c-3.1,-5.8 -3.1,-5.8 -1,-6.8c3.2,-1.4 5,-5.5 4.2,-9.7c-1,-5.4 -4.1,-7 -14.200001,-7.5l-8.4,-0.5l0,15.7l0,15.600001l3,0l3,0l0,-6.000001c0,-5.1 0.3,-6 1.8,-6c1.2,0 2.7,1.9 4.7,5.9c2.6,5.500001 3.1,6.000001 6.400001,6.300001l3.6,0.3l-2.6,1.8c-8.700001,5.9 -21.300001,1.6 -26.000001,-8.800001c-7.8,-17.1 9.9,-35.2 25.600001,-26.1zm-4.400001,9.2c2.100001,2.5 -0.1,4.9 -5,5.2c-4.1,0.3 -4.1,0.3 -4.1,-3.2c0,-3.5 0.1,-3.6 3.9,-3.6c2.3,0 4.4,0.6 5.2,1.6z"/>
 </g>
</svg>