<?xml version="1.0" standalone="no"?>
<!DOCTYPE svg PUBLIC "-//W3C//DTD SVG 20010904//EN"
 "http://www.w3.org/TR/2001/REC-SVG-20010904/DTD/svg10.dtd">
<svg version="1.0" xmlns="http://www.w3.org/2000/svg"
 width="1528.000000pt" height="735.000000pt" viewBox="0 0 1528.000000 735.000000"
 preserveAspectRatio="xMidYMid meet">
<metadata>
Created by potrace 1.15, written by Peter Selinger 2001-2017
</metadata>
<g transform="translate(0.000000,735.000000) scale(0.100000,-0.100000)"
fill="#5E6D76" stroke="none">
<path d="M9256 5442 c-21 -4 -43 -14 -47 -22 -4 -8 -17 -58 -29 -110 -12 -52
-33 -143 -47 -202 l-25 -108 -169 0 -170 0 1 183 c0 100 1 192 0 205 0 22 -1
22 -160 22 -151 0 -240 -8 -355 -31 -27 -6 -67 -13 -88 -16 -20 -3 -40 -9 -43
-14 -3 -5 -18 -9 -33 -9 -25 0 -57 -10 -126 -39 -11 -5 -36 -15 -55 -22 -60
-21 -228 -107 -283 -144 l-52 -35 -5 149 c-3 82 -8 152 -11 155 -3 4 -520 6
-1148 6 -961 0 -1159 -3 -1254 -15 -110 -15 -182 -28 -242 -45 -16 -5 -50 -14
-75 -21 -72 -19 -239 -88 -320 -132 -109 -59 -147 -83 -222 -143 l-67 -54
-282 0 c-246 0 -280 2 -275 15 3 10 -1 15 -13 15 -10 0 -24 7 -31 15 -17 20
-140 101 -168 109 -14 5 -21 13 -18 21 3 9 -2 11 -15 8 -11 -3 -39 4 -62 16
-129 65 -275 91 -509 91 -186 0 -187 0 -190 23 l-3 22 -562 3 -563 2 0 -25 0
-25 -201 0 c-111 0 -218 -4 -238 -9 -20 -5 -61 -15 -91 -21 -88 -19 -196 -59
-261 -96 -34 -19 -63 -34 -66 -34 -3 0 -33 -20 -67 -44 -81 -59 -184 -165
-241 -251 -59 -87 -54 -82 -66 -65 -7 11 -8 8 -4 -11 5 -19 -3 -42 -29 -87
-20 -33 -36 -65 -36 -70 0 -5 -7 -15 -15 -22 -8 -7 -12 -16 -10 -21 3 -4 -4
-37 -15 -71 -27 -81 -50 -208 -50 -278 0 -102 38 -295 71 -363 11 -22 19 -44
19 -50 0 -12 45 -102 95 -192 31 -55 91 -142 112 -163 23 -24 14 -34 -30 -31
-24 2 -48 -1 -55 -5 -17 -10 -17 -717 0 -734 9 -9 356 -12 1500 -12 l1488 0
86 -172 c48 -95 105 -209 126 -253 21 -44 42 -87 47 -95 5 -8 44 -86 88 -174
179 -364 209 -407 308 -455 28 -13 58 -27 67 -32 10 -5 1530 -9 3564 -9 l3546
0 72 34 c105 52 135 86 219 254 41 81 82 161 90 177 9 17 53 104 98 195 45 91
86 172 90 180 4 8 51 103 104 210 53 107 98 197 101 199 2 2 17 -10 33 -28
l29 -31 511 0 c596 0 556 -9 489 106 -46 78 -69 120 -123 219 -21 39 -42 76
-47 83 -8 9 2 12 46 12 43 0 56 -3 56 -15 0 -8 5 -15 10 -15 6 0 38 -22 73
-49 81 -63 196 -141 208 -141 5 0 26 -11 47 -23 71 -46 245 -101 398 -127 72
-13 228 -9 349 9 209 30 471 160 684 340 63 54 144 159 218 286 57 98 114 240
143 362 11 48 25 104 30 124 17 64 11 325 -9 414 -25 106 -49 195 -60 220 -5
11 -21 47 -36 80 -58 132 -203 315 -392 493 -206 196 -377 289 -668 368 -130
35 -339 51 -510 39 l-103 -7 -16 -42 c-9 -23 -16 -51 -16 -63 0 -12 -4 -32 -9
-45 -5 -13 -21 -77 -36 -143 -15 -66 -29 -126 -31 -132 -5 -18 -444 -19 -444
-1 0 13 -4 17 -102 119 -144 148 -318 245 -508 282 -36 7 -310 11 -780 11
l-725 1 -3 -212 -2 -213 -41 0 c-34 0 -51 9 -118 64 -73 59 -177 134 -226 163
-41 24 -227 113 -236 113 -5 0 -17 4 -27 9 -58 29 -163 57 -307 82 -72 12
-394 20 -449 11z m432 -273 c13 -5 35 -9 49 -9 27 0 48 -6 168 -47 271 -93
521 -291 677 -534 110 -172 162 -354 162 -564 0 -126 -7 -180 -46 -317 -20
-74 -115 -262 -173 -345 -64 -91 -264 -244 -385 -294 -14 -6 -38 -16 -55 -23
-47 -21 -115 -43 -175 -56 -84 -18 -433 -4 -465 19 -5 4 -32 16 -60 26 -27 10
-54 22 -60 26 -5 5 -15 9 -22 9 -11 0 -159 85 -173 100 -3 3 -27 23 -55 45
-62 49 -108 95 -160 160 -22 28 -45 56 -52 63 -7 7 -13 22 -13 32 0 10 -6 20
-14 23 -17 7 -75 122 -108 217 -36 103 -55 252 -40 313 7 25 12 58 12 72 0 30
41 155 74 225 61 132 230 328 347 402 80 51 187 108 204 108 9 0 23 4 33 9 36
19 222 47 223 34 0 -4 3 -58 5 -120 5 -103 4 -112 -14 -122 -11 -6 -47 -43
-81 -83 -79 -94 -81 -96 -81 -102 0 -3 -13 -26 -29 -53 -58 -95 -102 -283
-103 -440 0 -77 18 -223 33 -261 5 -13 9 -33 9 -45 1 -22 42 -154 75 -237 28
-69 99 -174 136 -200 54 -39 114 -50 173 -31 127 41 279 263 365 536 37 115
40 126 56 225 62 390 -78 735 -386 947 -25 17 -62 39 -84 48 -74 32 -220 75
-254 75 -27 0 -32 3 -26 18 4 9 9 32 12 50 3 18 10 35 14 38 5 3 9 20 9 39 0
27 5 35 23 38 32 7 228 -4 255 -14z m4017 11 c193 -18 292 -46 470 -136 283
-142 510 -383 613 -649 56 -148 66 -204 65 -385 0 -170 -5 -202 -53 -344 -21
-60 -30 -81 -92 -198 -69 -132 -150 -216 -318 -331 -80 -54 -286 -147 -327
-147 -13 0 -34 -5 -45 -11 -13 -7 -79 -11 -173 -10 -128 0 -166 4 -249 25
-105 28 -284 109 -331 151 -7 6 -24 19 -40 30 -48 35 -200 188 -242 245 -115
155 -183 355 -183 534 0 85 3 104 37 226 24 86 88 212 151 297 61 82 195 213
218 213 7 0 17 6 21 13 10 15 122 82 155 92 12 4 28 11 33 14 6 4 30 13 55 20
25 7 59 16 75 21 17 4 56 11 88 15 l57 6 1 -73 c1 -40 3 -93 4 -118 1 -41 -3
-49 -45 -90 -137 -135 -207 -271 -246 -480 -25 -140 -11 -341 35 -500 5 -19
14 -51 19 -71 5 -20 17 -51 26 -69 9 -18 16 -40 16 -49 0 -23 80 -156 120
-197 33 -35 105 -74 137 -74 33 0 121 48 168 91 90 83 187 255 248 439 43 130
54 172 64 235 10 63 9 314 -1 380 -25 160 -137 369 -259 484 -57 53 -154 117
-247 161 -39 19 -191 60 -220 60 -27 0 -31 3 -25 18 6 16 25 84 39 145 7 31
14 32 181 17z m-1550 -26 c11 -7 38 -17 60 -24 175 -54 348 -215 415 -385 52
-132 68 -239 52 -352 -29 -204 -124 -367 -287 -488 -55 -41 -166 -95 -196 -95
-22 0 -30 -6 -35 -25 -4 -16 -1 -32 8 -43 23 -27 58 -92 58 -107 0 -7 4 -15 8
-17 7 -3 63 -98 202 -348 29 -52 61 -110 72 -127 78 -139 118 -211 118 -216 0
-2 -110 -5 -245 -6 l-245 -2 -9 24 c-5 12 -16 29 -25 36 -13 11 -63 81 -101
142 -5 9 -36 54 -68 100 -161 234 -302 441 -338 497 -23 34 -47 62 -55 62 -12
0 -14 -67 -14 -430 l0 -430 -305 0 -305 0 0 1113 c0 877 3 1116 13 1126 16 17
1191 12 1222 -5z m-4847 -111 l3 -113 -255 0 c-222 0 -255 -2 -260 -16 -3 -9
-6 -461 -6 -1005 l0 -989 -330 0 -330 0 -2 1003 -3 1002 -257 3 -258 2 0 109
c0 59 3 111 7 115 4 3 385 5 847 4 l841 -3 3 -112z m-2000 7 c0 -81 -2 -92
-21 -105 -12 -8 -31 -15 -42 -15 -11 0 -42 -12 -70 -25 -27 -14 -54 -25 -58
-25 -26 0 -186 -122 -248 -188 -103 -109 -162 -209 -205 -342 -9 -30 -21 -61
-27 -67 -6 -9 -6 -18 2 -26 9 -11 70 -14 293 -15 l283 -1 3 -135 3 -136 -298
-2 -298 -3 3 -35 c3 -35 26 -109 43 -142 5 -10 9 -22 9 -28 0 -6 18 -40 40
-76 22 -36 40 -67 40 -69 0 -7 61 -76 126 -141 103 -103 238 -192 379 -248 39
-16 79 -32 90 -37 22 -9 102 -28 153 -36 l32 -5 0 -90 0 -90 -132 5 c-168 7
-238 17 -363 52 -27 8 -70 19 -95 26 -25 7 -49 16 -55 19 -5 4 -28 13 -50 20
-22 7 -51 18 -65 26 -14 7 -57 28 -96 47 -258 127 -493 360 -578 572 -41 101
-42 105 -55 158 -13 57 -15 288 -2 331 5 17 15 51 22 76 74 282 309 542 626
696 61 30 118 54 126 54 7 0 17 3 21 7 11 12 80 33 107 33 14 0 29 3 33 7 15
15 163 40 242 42 l82 1 0 -90z m3206 0 c0 -50 -5 -94 -10 -99 -5 -4 -34 -16
-64 -25 -30 -10 -65 -24 -77 -32 -12 -8 -27 -14 -32 -14 -19 0 -124 -72 -188
-127 -34 -29 -84 -82 -111 -116 -46 -59 -142 -232 -142 -257 0 -7 -7 -27 -16
-45 -8 -18 -14 -46 -12 -62 l3 -28 283 0 282 0 0 -137 0 -138 -290 0 c-242 0
-292 -2 -296 -14 -9 -23 23 -132 65 -220 61 -130 170 -264 285 -350 155 -117
314 -190 496 -228 l60 -12 0 -89 0 -89 -132 6 c-199 8 -347 33 -458 79 -8 3
-36 13 -61 21 -26 8 -75 29 -109 45 -35 17 -67 31 -71 31 -9 0 -99 55 -164
100 -195 134 -338 293 -418 463 -15 32 -27 64 -27 72 0 7 -4 16 -9 19 -20 13
-42 220 -35 331 15 221 119 439 294 615 57 57 142 130 152 130 4 0 37 20 72
44 65 44 196 111 242 122 13 3 27 10 30 15 3 5 16 9 29 9 13 0 26 4 29 9 3 5
23 11 43 14 57 8 185 36 191 42 3 3 42 5 86 5 l81 0 -1 -90z m-6112 -7 c-5
-68 4 -85 41 -78 18 3 48 12 67 19 138 53 388 69 560 36 30 -6 70 -13 88 -17
18 -3 35 -9 38 -14 3 -5 13 -9 22 -9 9 0 58 -20 108 -45 179 -88 344 -284 409
-485 10 -30 22 -65 28 -77 10 -21 13 -292 4 -323 -2 -8 -7 -28 -11 -45 -33
-134 -138 -323 -264 -475 -107 -129 -206 -231 -285 -295 -34 -27 -47 -44 -45
-59 3 -20 9 -21 216 -24 l213 -2 -3 -113 -3 -112 -512 -2 c-282 -2 -513 -1
-513 2 0 2 22 25 50 51 27 26 82 85 122 132 40 47 81 93 90 103 9 10 22 28 29
41 6 13 31 53 55 89 39 61 104 189 104 207 0 4 6 18 13 32 17 34 51 153 62
220 30 186 30 305 -4 500 -35 210 -170 406 -332 482 -120 57 -128 59 -239 56
l-105 -3 -2 -955 -3 -955 -305 -3 -305 -2 0 954 c0 653 -3 957 -10 961 -37 23
-277 -7 -295 -36 -4 -5 -13 -9 -21 -9 -39 0 -197 -129 -232 -190 -51 -86 -91
-177 -104 -235 -63 -286 -46 -580 47 -800 9 -22 24 -56 32 -75 8 -19 19 -42
23 -50 5 -8 25 -43 45 -77 59 -103 153 -223 262 -332 57 -58 103 -106 103
-108 0 -2 -233 -2 -517 -1 l-518 3 0 110 0 110 215 6 c118 3 216 6 218 7 12 8
-8 49 -28 59 -24 11 -270 254 -270 266 0 3 -12 19 -26 34 -36 38 -109 135
-125 164 -6 13 -15 26 -19 29 -10 8 -75 138 -99 201 -38 96 -50 170 -51 291 0
139 9 184 62 308 84 196 225 350 392 429 218 104 494 127 751 62 22 -5 58 -14
79 -20 21 -5 43 -16 48 -23 16 -24 38 21 38 79 l0 53 307 -2 308 -3 -3 -42z
m2055 -2695 c5 -7 18 -42 27 -78 10 -36 22 -74 26 -85 4 -11 13 -40 20 -65 7
-25 19 -62 26 -83 22 -60 19 -69 -22 -65 -35 3 -37 5 -56 66 -18 61 -20 62
-54 62 -36 0 -37 -1 -76 -97 -11 -29 -17 -33 -52 -33 -26 0 -37 4 -33 13 2 6
9 28 15 47 7 19 20 62 31 95 10 33 27 87 36 120 31 111 34 115 70 115 18 0 37
-6 42 -12z m735 -38 c30 -69 56 -69 85 1 21 47 24 50 55 47 19 -2 33 -8 32
-15 -1 -7 -2 -94 -2 -193 l-2 -180 -31 0 -32 0 6 73 c6 86 0 103 -34 91 -13
-5 -37 -8 -54 -9 l-30 0 -3 -77 -3 -78 -34 0 -35 0 0 195 0 195 30 0 c27 0 33
-6 52 -50z m893 23 c20 -23 25 -38 25 -83 0 -46 -5 -61 -28 -87 -22 -26 -35
-33 -64 -33 -49 0 -60 -17 -57 -92 l3 -63 -32 -3 -32 -3 2 195 1 196 78 0 c72
0 80 -2 104 -27z m627 -124 c-2 -163 -1 -166 63 -171 37 -3 40 -5 40 -33 l0
-30 -82 -3 -83 -3 0 189 c0 104 3 192 7 196 4 4 18 6 32 4 l24 -3 -1 -146z
m698 139 c0 -5 0 -91 0 -193 l0 -185 -30 0 -30 0 0 188 c0 104 3 192 7 196 9
9 54 4 53 -6z m750 -23 c0 -21 -5 -35 -12 -36 -7 -1 -38 -2 -68 -3 l-55 -1 0
-40 0 -40 55 -5 c53 -5 55 -6 58 -37 4 -36 -18 -49 -66 -39 -46 10 -57 -6 -57
-81 l0 -68 -33 -3 -33 -3 2 195 2 196 103 0 104 0 0 -35z m595 -160 l0 -190
-28 0 -28 0 0 185 c0 102 0 189 1 193 0 5 12 7 28 5 l27 -3 0 -190z m745 156
l0 -38 -58 2 c-73 4 -84 -3 -80 -46 3 -34 3 -34 61 -37 l58 -3 -3 -37 c-3 -37
-4 -37 -48 -38 -69 -2 -70 -2 -70 -33 0 -39 16 -49 85 -53 59 -3 59 -3 61 -35
2 -37 8 -35 -141 -36 l-70 0 -3 184 c-1 101 0 189 2 196 4 9 33 13 106 13
l100 0 0 -39z m706 31 c41 -28 58 -120 33 -176 -9 -20 -9 -29 1 -41 7 -9 15
-49 18 -90 l5 -75 -35 0 -36 0 6 45 c2 25 -1 58 -8 75 -11 28 -17 31 -49 28
l-36 -3 -3 -72 -3 -73 -29 0 -30 0 0 195 0 195 78 0 c42 0 82 -4 88 -8z m763
-13 c26 -24 44 -67 37 -86 -8 -19 -40 -16 -61 7 -10 11 -29 20 -42 20 -21 0
-24 -4 -21 -31 2 -18 10 -35 18 -39 73 -35 89 -45 99 -66 24 -54 10 -122 -33
-156 -29 -24 -101 -23 -136 2 -27 19 -43 61 -33 87 8 22 64 16 70 -7 6 -23 54
-28 71 -7 13 15 -10 57 -31 57 -7 0 -29 11 -49 25 -64 43 -68 123 -11 189 29
33 89 36 122 5z"/>
<path d="M11675 4933 c-27 -3 -54 -8 -59 -14 -6 -5 -19 -9 -29 -9 -23 0 -87
-29 -87 -40 0 -4 25 -47 55 -96 30 -49 58 -96 62 -104 3 -8 11 -22 18 -30 7
-8 27 -42 45 -75 17 -33 36 -64 40 -70 4 -5 32 -50 60 -100 29 -49 62 -106 73
-125 11 -19 27 -46 34 -60 13 -23 27 -47 77 -128 35 -56 46 -52 125 53 95 125
138 260 128 396 -5 61 -14 91 -56 179 -36 79 -148 166 -266 208 -35 12 -149
20 -220 15z"/>
</g>
</svg>
