<svg width="2000" height="598" xmlns="http://www.w3.org/2000/svg" preserveAspectRatio="xMidYMid meet">

 <g>
  <title>background</title>
  <rect fill="none" id="canvas_background" height="402" width="582" y="-1" x="-1"/>
 </g>
 <g>
  <title>Layer 1</title>
  <path fill="#5e6d76" id="svg_2" d="m1101.80003,15.99999c-19.5,4.1 -31.4,21.1 -28.3,40.5c2.1,13.3 7.9,23.6 18.6,33.3l6.3,5.7l0.3,126.1l0.3,126.10001l-5.6,2.6c-6.9,3.3 -15.3,10.7 -18,15.9c-6.3,12.4 -2.8,28.2 7.4,32.9c5.2,2.3 10.1,2.4 21.9,0.2c7.1,-1.3 15,-1.7 32.8,-1.7c22.1,-0.1 24.2,0.1 35.3,2.7c20.4,4.7 28,3.2 34.1,-6.6c2.3,-3.8 3,-6.2 3.4,-12.2c0.8,-12.4 -3.1,-21.4 -11.8,-27.1l-4,-2.7l0,-119.50001l0,-119.5l4.6,-4.5c8.7,-8.3 23.6,-13.3 33.3,-11.1c18.2,4.1 31.1,22.5 40.1,57.3c8.3,32 7.9,56.5 -1.6,97.3c-9.9,42.70001 -21.2,70.70001 -41.9,103.80001c-9.5,15.1 -12.3,23.5 -10.7,31.2c2,9.7 7.5,14.3 17,14.3c2.7,0 11.4,-0.7 19.3,-1.6c18,-2 62.8,-1.4 74.9,1.1c10.3,2.1 21.5,1.9 26.5,-0.4c5,-2.3 9.7,-7.5 12,-13.5c1.3,-3.5 1.6,-6.6 1.3,-13.3c-0.5,-9.6 -2,-13.6 -7.2,-19.1c-4.5,-4.8 -7.7,-6.2 -14.4,-6.2c-7.3,0 -11.8,1.5 -21.8,7.4c-4.8,2.8 -9.1,4.6 -11,4.6c-4.2,0 -7.4,-3.6 -7.4,-8.3c0,-3.9 -0.2,-3.7 20.9,-30.7c12.9,-16.6 31,-41.6 36.4,-50.5c5.5,-9.00001 18.3,-38.10001 21.2,-48.10001c4.4,-15.3 5.8,-26.3 5.9,-46.4c0,-16.6 -0.2,-19.6 -2.6,-29.5c-7.4,-31.3 -21.9,-57.3 -45.6,-81.7c-11.2,-11.5 -20.7,-19 -31.3,-24.7c-8.5,-4.6 -38,-14.6 -47.7,-16.1c-11.6,-1.9 -32.5,-1.4 -44.2,1c-12.5,2.5 -31.4,8.7 -39.8,12.9c-6.7,3.4 -7.1,3.4 -14.7,-1.5c-8.9,-5.6 -25.5,-13.4 -35.9,-16.9c-10.9,-3.6 -21.5,-4.9 -28.3,-3.5zm142.7986,76.99893l18.90128,20.29922l12.2007,28.19963l8.30162,57.8025c-2.5,11.5 -5.20019,57.29957 -12.90019,70.69958c-5.7,9.8 -0.2006,32.20012 -20.1006,57.50012c-25.80141,59.10003 -24.10141,50.60003 -13.30141,33.50003c9,-14.4 22.1,-40.1 27.7,-54.3c7.2,-18.6 15.5,-49.80001 20.8,-78.70001c1.3,-7.1 1.7,-14.8 1.7,-30.5c0,-19 -0.3,-22.2 -2.7,-34c-2.8,-13.3 -10.2,-36.7 -13.9,-43.9l-27.4,-29.7c-17.36667,3.9 -39.23323,-7.19965 -52.1,11.7l-7.3,7.2l0,125.1c-102,136.60001 -6.60206,122.20017 7.09794,116.60017l-1.49984,-120.70029l-1.6,-118.80033c7.86709,-7.16684 17.73413,-11.83374 25.60121,-19.00059z"/>
  <path fill="#5e6d76" id="svg_3" d="m171.7,15.99999c-46.8,7.4 -87,34.9 -117,80.2c-19.4,29.2 -32.6,64.5 -37.8,100.8c-1.8,12.9 -1.6,40.4 0.5,53.5c7.4,46.70001 28,88.50001 59.5,120.80001c25.9,26.6 54,42.5 87.8,49.7c12.8,2.8 39.2,3.8 53,2c68.1,-8.5 126.40001,-62.6 151.20001,-140.20001c10.4,-32.7 11.9,-68.3 4.5,-105.8c-15.2,-76.4 -60.40001,-133.4 -121.70001,-153.5c-18.5,-6 -29.6,-7.7 -53.2,-8.1c-11.5,-0.1 -23.6,0.1 -26.8,0.6zm27.00002,59.49993l30.60008,24.40003l16.20007,50.7001c6,51.8 10.19998,49.80008 -21.60003,94.90008l-23.90002,16.70003l-16.00014,-8.59995c-56,-10.7 2.19986,31.19989 -23.50014,-28.10011l-10.5,-36.20008l0.80008,-77.50009l47.9001,-36.30001z"/>
  <path fill="#5e6d76" id="svg_4" d="m184.5,76.69999c-13.3,4.8 -37.99998,15 -45.19998,33.8c-6.8,17.8 5.09998,39.9 5.99998,63c0.9,24.8 5.1,43.4 13.7,61.2c-13.09997,40.19996 14.3,21.3 23.6,25.9c5.3,2.60001 5.9,21.89998 14.9,21.89998c9.3,0 11.5,-19.19997 17.7,-22.29998c20.9,-10.3 52.99997,-40 54.49997,-80.2c1.4,-40 -27.19997,-74.3 -44.79997,-92.2c-8.9,-9.1 -15.4,-12.1 -26.9,-12.5c-6.3,-0.3 -9.8,0.1 -13.5,1.4zm26.1,11.8c12.8,6.3 23.1,23.8 27.9,47.5c2.2,10.8 3,37.3 1.6,50c-4.1,34.9 -18,61.7 -34.6,66.5c-26.6,7.8 -48.3,-26.6 -50.2,-79.5c-1.1,-31.7 5.9,-60.3 18.4,-75.8c9.6,-11.8 23.8,-15.1 36.9,-8.7z"/>
  <path fill="#5e6d76" id="svg_5" d="m372.00001,18.69998c-8.1,4.1 -11.5,12.1 -10.8,24.9c1,16.7 12.4,29.3 32.1,35.5l5.7,1.8l0,135.3l0,135.30001l-6.9,3.4c-14.6,7.4 -23.1,18.5 -23.1,30.3c0,8.3 2.5,13.3 8.2,16.7c8.4,4.9 16.7,5 35.1,0.5c12.2,-3 32.6,-2.3 50.7,1.6c16.8,3.7 30.7,4 36.6,0.8c5.5,-3 9,-7.3 10.9,-13.5c4.4,-14.9 -2.2,-28.6 -16.8,-34.8l-5.7,-2.5l0.2,-19.8l0.3,-19.9l8.4,-3.4c10.7,-4.3 13.8,-4.4 14.7,-0.7c5.9,26 18.3,69.5 25,87.9c2.5,7.1 6.9,17.6 9.6,23.4c2.8,5.8 8.7,18.7 13.3,28.6c12.6,27.8 21.9,42.5 40.4,64.4c26.7,31.4 54.1,51.3 78.6,57.1c7.9,1.8 11.1,2 25.5,1.6c19.3,-0.6 24,-1.7 39,-8.9c9.1,-4.4 11.5,-6.2 19.5,-14.2c8,-7.9 9.8,-10.5 14.3,-19.6c16.2,-33 14.5,-75.8 -4.1,-103c-9.9,-14.3 -26.3,-26.2 -44.8,-32.4c-11,-3.7 -19.2,-4.6 -30.8,-3.5c-17.1,1.6 -31.7,7.4 -42.3,16.9l-5.5,4.9l-6.1,-10.2c-19,-32.1 -31,-65 -40.3,-109.7c-1.9,-9.50001 -3.2,-19.00001 -3.6,-27.50001l-0.5,-13l9.3,-7.5c13.7,-10.8 36.3,-33.8 45.6,-46.3c9.7,-13 18.2,-28.9 21.9,-41.2c2.6,-8.3 2.8,-10.3 2.8,-25.5c-0.1,-59.2 -26.5,-97.3 -75.6,-109c-19,-4.5 -37.6,-3.6 -70.8,3.5c-33.6,7.1 -40.2,8 -61.5,7.9c-29.2,0 -48.4,-3.7 -71.7,-13.4c-13.8,-5.9 -19.5,-6.4 -26.8,-2.8zm109.29991,74.49888l32.20053,-11.19992l40.40021,12.79957l10.00174,16.40139l-2.50149,58.0017l-25.20127,33.8007l-38.30008,15.3998l-16.40124,4.10107l-5.99987,-74.20496l5.80147,-55.09935z"/>
  <path fill="#5e6d76" id="svg_6" d="m508.100008,77.099992c-5.5,1.1 -16.6,4.7 -20.6,6.7c-1.6,0.8 -5.1,3.3 -7.7,5.4l-4.8,4l0,64.800001c0,41.400001 0.4,65.100001 1,65.500001c2.5,1.6 17.8,1.7 24.3,0.1c16.2,-3.8 35.500001,-15.3 49.400001,-29.2c14.2,-14.3 21,-31.7 22,-55.900001c0.6,-15.4 -0.8,-23.2 -6.3,-33.5c-6.5,-12.5 -20.8,-24.1 -33.900001,-27.5c-6.4,-1.6 -16.3,-1.8 -23.4,-0.4zm27.9,13.7c9.1,4.3 17.5,12.4 21.2,20.2c7.4,15.7 5.9,41.700001 -3.4,60.800001c-9.9,20.2 -44.900001,43.000001 -66.000001,43.200001l-2.8,0l0,-58.300001l0,-58.400001l2.3,-2c4.1,-3.7 16.5,-8.2 25.7,-9.3c9,-1.1 14.9,-0.1 23,3.8z"/>
  <path fill="#5e6d76" id="svg_7" d="m757.60003,19.69999c-22.1,4.7 -36,16.2 -42.7,35.3c-2.9,8.5 -3.2,28.9 -0.6,39c5,18.9 18,34.7 33,40.1c2,0.7 3.7,1.5 3.7,1.9c0,0.3 -4.5,1.5 -9.9,2.8c-25.3,5.9 -45,21.5 -52.6,41.6c-6.9,18.2 -4.6,47.7 5.3,69.1c13.6,29.5 42.3,47.20001 81,50.10001l9.2,0.7l0,22.3l0,22.2l-6.4,4.6c-7.8,5.5 -13.7,12.1 -17.1,18.9c-4.5,9.2 -3.2,24.1 2.8,30.5c6,6.4 12.9,7.2 30.7,3.5c11.8,-2.4 15.5,-2.7 29.5,-2.6c14,0.1 17.8,0.5 30.5,3.3c20.1,4.5 24.6,4.8 29,1.8c8.5,-5.7 14,-18 14,-31.2c0,-11.7 -5.3,-20 -16.3,-25.2l-3.7,-1.8l0,-20.8l0,-20.8l31,0l31,0l0,19.9l0,20l-6,3.2c-7.4,3.9 -15,11.3 -17.9,17.3c-5.9,12.1 -2,30 8.2,37.7c2.8,2.1 4.3,2.4 11.2,2.4c4.4,0 11.4,-0.8 15.5,-1.8c5.3,-1.3 13.2,-2 27,-2.4c18,-0.5 20.6,-0.3 34.00001,2.1c18.3,3.3 24.6,3.4 29.1,0.3c8.3,-5.6 13.3,-20.8 11,-33.5c-1.6,-8.6 -4.5,-13.4 -12.2,-20.1l-6.2,-5.5l0.7,-130.50001c0.6,-117.8 0.9,-130.7 2.3,-131.6c13.1,-8.3 20.1,-20.3 21.1,-36.1c0.5,-9.2 -0.6,-13.9 -4.6,-18.6c-5.9,-7 -16.8,-8.5 -33.7,-4.9c-22.60001,4.9 -47.20001,7.6 -84.70001,9.1c-23.5,1 -35.9,0.7 -68.8,-1.5c-22.7,-1.6 -53.9,-5.8 -77.2,-10.5c-5.6,-1.15 -10.75,-1.75 -15.7,-1.8c-4.95,-0.05 -9.7,0.45 -14.5,1.5zm125.89775,129.29724l30.00223,-31.99897l31.5019,-9.49886c-0.5,2 3.69988,1.70138 3.29988,74.50138l0.00001,54.50184l-77.80185,0.39943l3.29804,-43.40347l9.69979,-44.50135z"/>
  <path fill="#5e6d76" id="svg_8" d="m934.000014,104.099993c-3,0.5 -9.6,2.9 -14.7,5.4c-15.8,7.8 -30.4,23.5 -38.800001,41.800001c-9.1,19.9 -14.5,46.800001 -14.5,72.300001c0,8.8 0.2,10 2.5,13c1.5,2 4,3.7 6.3,4.4c4.3,1.1 23.3,1.3 54.500001,0.3l21.7,-0.6l0,-68.900001l0,-68.800001l-5.7,0.1c-3.2,0.1 -8.3,0.5 -11.3,1zm7,67.900001l0,59.000001l-32.7,0l-32.6,0l0.6,-13.8c2.5,-55.500001 24.9,-94.400001 59.200001,-102.800002c2.8,-0.7 5.1,-1.3 5.3,-1.3c0.1,-0.1 0.2,26.4 0.2,58.900001z"/>
  <path fill="#5e6d76" id="svg_9" d="m1626.70002,27.99999c-4.8,1.6 -12.8,5.1 -17.8,7.7l-9.2,4.8l-13.1,0c-7.2,0 -17.6,-0.4 -23.2,-0.9c-20.6,-1.8 -48.4,5.7 -70.7,19.1c-26,15.7 -52,46.4 -65,76.9c-18.4,42.9 -22.9,96.7 -11.4,134.90001c10,33 31.5,68.2 55.3,90.4c27.9,26.1 67.6,40.1 113.5,40.1l10.9,0l0,13.4l0,13.4l-7,-2.9c-18.4,-7.8 -34,-9 -49.3,-3.9c-22.6,7.6 -42.2,25 -51.3,45.5c-5.9,13.4 -8.5,34.2 -6.5,51.5c4.2,37.1 20.5,54 57.2,59.6c16.3,2.5 50.8,1.5 64.9,-1.9c24.7,-5.8 40,-13.7 54.1,-27.7c16.6,-16.5 29.10001,-38.9 37.10001,-66.5c5.9,-20.4 5.8,-18.3 7.7,-126.9l1.8,-101.00001l3.4,-2.5c5.6,-4.2 11.7,-10.8 14,-15.3c5,-9.7 3.2,-26.2 -3.7,-33.8c-6.7,-7.4 -15.9,-8.7 -27.1,-3.9c-7.1,3 -22.10001,6.7 -30.50001,7.5c-8.3,0.7 -24.3,-1.3 -40.3,-5c-15.3,-3.6 -19.6,-4 -24.1,-2.1c-5.8,2.4 -9.3,6.3 -11.1,12.4c-3.8,13.3 3,27.5 18.2,37.7l5,3.4l-0.3,28.30001c-0.3,24.4 -0.6,28.7 -2.1,31.6c-2.6,5.3 -7.8,7.5 -18.7,7.9c-19.6,0.9 -30.1,-3.1 -43.4,-16.7c-8.8,-8.9 -12.7,-15.3 -16.8,-27.6c-4.9,-14.70001 -7.8,-37.80001 -6.8,-55.50001c3,-57.9 30.3,-94.8 68.6,-92.8c14.2,0.8 24.8,5.9 42.8,20.7c14.7,12.2 25.5,15.9 38.1,13.1c13.10001,-2.9 19.10001,-9 20.60001,-21.1c0.8,-6.8 -0.8,-11.4 -6.4,-17.4c-9.30001,-10.1 -12.50001,-32.1 -9.20001,-63.5c1.1,-9.6 1.1,-13.5 0.2,-16.7c-4.1,-14.9 -26.8,-21.6 -48.4,-14.3z"/>
  <path fill="#5e6d76" id="svg_10" d="m1740.50003,26.49999c-7.7,2.7 -13.5,11.4 -13.5,20.2c0,3.6 4.3,9.3 14.4,19.3l6.6,6.4l0,53.7c0,29.4 -0.3,91.4 -0.7,137.60001l-0.6,84l-5.7,2.7c-13.2,6 -21.4,17.3 -21.4,29.5c-0.1,10.1 3.9,16 13.9,20.7c6,2.9 13.4,3.1 26.4,0.9c18.5,-3.2 85.7,-3.5 133.6,-0.5c31.3,1.9 45.5,1.9 48.7,-0.2c5.6,-3.7 8.3,-9.3 23.5,-49.9c14.6,-39.1 15.3,-41.3 15.3,-48.3c0,-10 -2.7,-15 -9.9,-18.8c-10.5,-5.5 -22.5,-2.8 -31.2,7c-2.3,2.6 -7.1,9 -10.7,14.2c-10.7,15.5 -27.6,30.9 -40.7,37.1l-6,2.9l-25.2,0l-25.3,0l0,-31.8c0,-17.4 0.3,-40.1 0.7,-50.5l0.6,-18.70001l13.9,0l13.9,0l5.6,6.1c3.1,3.3 7.9,7.2 10.7,8.7c4.6,2.4 6.1,2.7 14.6,2.6c7.3,-0.1 10.9,-0.6 15.4,-2.4c8.1,-3.1 14,-9.1 15.4,-15.7c0.6,-2.8 1.2,-19 1.3,-37.4c0.1,-28.3 -0.1,-32.9 -1.5,-36.4c-3.7,-8.7 -12.5,-14.7 -24.6,-16.6c-11.6,-1.8 -21.3,0.8 -29,7.8l-5,4.5l-16,-0.7l-16,-0.8l0,-30.8l0,-30.9l25.4,0c30.4,0 33.5,0.7 47.3,10c9.4,6.3 16,12.4 29,26.6c5.8,6.5 9.9,10 14.5,12.4c5.8,3.2 7,3.5 14.8,3.5c7.2,0 9.2,-0.4 12.8,-2.5c2.4,-1.3 5.3,-4 6.5,-6c3.9,-6.2 3,-11.2 -7.6,-44c-5.3,-16.2 -11.9,-36.9 -14.8,-46c-5.9,-19 -8.4,-23.9 -13.6,-27.2c-4.7,-2.8 -9.8,-2.9 -51.8,-0.9c-33.6,1.6 -86.7,1 -109,-1.4c-18.2,-1.9 -39.7,-1.9 -45,0z"/>
  <path id="svg_11" d="m32.999764,269.874993l-12.99976,18.125069" opacity="0.5" stroke-width="null" fill="#5e6d76"/>
 </g>
</svg>