<?xml version="1.0" standalone="no"?>
<!DOCTYPE svg PUBLIC "-//W3C//DTD SVG 20010904//EN"
 "http://www.w3.org/TR/2001/REC-SVG-20010904/DTD/svg10.dtd">
<svg version="1.0" xmlns="http://www.w3.org/2000/svg"
 width="1488.000000pt" height="656.000000pt" viewBox="0 0 1488.000000 656.000000"
 preserveAspectRatio="xMidYMid meet">

<g transform="translate(0.000000,656.000000) scale(0.100000,-0.100000)"
fill="#5E6D76" stroke="none">
<path d="M7100 6358 c-206 -4 -424 -12 -485 -18 -60 -6 -175 -15 -255 -20 -80
-6 -181 -15 -225 -21 -221 -27 -528 -71 -590 -85 -86 -19 -239 -56 -243 -59
-1 -1 12 -55 29 -121 17 -65 36 -146 43 -179 7 -33 16 -69 19 -80 3 -11 8 -38
12 -59 3 -22 14 -74 25 -117 27 -106 27 -145 -2 -152 -13 -4 -140 -18 -283
-32 -143 -14 -289 -30 -325 -35 -36 -5 -96 -12 -135 -15 -38 -3 -88 -10 -110
-15 -22 -5 -66 -10 -97 -10 -31 0 -59 -4 -62 -8 -3 -5 -57 -14 -121 -22 -63
-7 -118 -16 -121 -21 -3 -5 -22 -9 -42 -9 -20 0 -53 -4 -72 -10 -19 -5 -109
-23 -200 -41 -263 -49 -272 -51 -520 -109 -96 -22 -220 -50 -275 -61 -55 -12
-118 -25 -140 -30 -70 -14 -70 -14 -113 79 -23 49 -67 142 -98 208 -80 168
-104 224 -104 240 0 22 -39 17 -187 -26 -76 -23 -145 -43 -154 -45 -67 -15
-190 -57 -339 -115 -294 -116 -301 -119 -609 -266 -73 -35 -135 -64 -138 -64
-2 0 -35 -17 -71 -38 -37 -22 -103 -58 -147 -82 -44 -24 -98 -53 -120 -65 -22
-12 -76 -41 -120 -65 -44 -23 -111 -61 -150 -84 -38 -23 -112 -66 -162 -96
-51 -30 -93 -58 -93 -62 0 -12 112 -173 126 -181 8 -4 14 -16 14 -26 0 -10 9
-26 20 -36 11 -10 20 -26 20 -35 0 -10 7 -20 15 -24 8 -3 15 -10 15 -16 0 -16
89 -152 109 -167 9 -7 25 -13 35 -13 32 0 383 106 401 121 5 5 25 9 45 9 20 0
45 7 56 15 10 8 30 15 44 15 14 0 79 18 145 39 66 22 206 60 310 85 105 25
240 60 300 76 135 37 257 68 440 109 77 18 205 47 285 66 80 19 174 39 210 45
36 6 94 17 130 25 36 8 162 33 280 55 118 22 233 45 255 50 22 5 58 12 80 14
85 10 360 52 595 92 80 14 204 32 275 40 173 19 375 43 455 54 256 36 704 72
1365 110 294 17 340 19 580 27 410 14 1237 1 1490 -23 83 -8 262 -21 399 -29
137 -8 306 -21 375 -29 69 -8 162 -18 206 -21 90 -7 219 -21 580 -66 138 -17
282 -35 322 -39 39 -5 98 -13 130 -19 32 -6 87 -13 123 -16 36 -3 130 -17 210
-31 80 -14 190 -32 245 -40 55 -8 116 -17 135 -19 70 -11 321 -62 490 -102 36
-8 90 -19 120 -24 30 -5 73 -13 95 -18 22 -5 89 -19 148 -30 101 -21 551 -133
947 -236 96 -26 225 -59 285 -75 139 -37 339 -95 525 -155 80 -25 177 -54 215
-65 39 -10 96 -26 127 -36 31 -9 63 -14 71 -11 12 4 87 120 132 202 14 27 88
139 96 145 3 3 22 30 42 60 20 30 41 60 47 67 5 7 10 16 10 20 -1 9 -154 113
-315 214 -270 170 -1215 617 -1470 696 -222 69 -438 133 -449 133 -12 0 -27
-30 -89 -170 -13 -30 -36 -80 -50 -110 -13 -30 -44 -101 -67 -157 -23 -56 -47
-107 -54 -112 -7 -6 -37 -3 -86 10 -202 52 -273 70 -365 89 -55 12 -111 26
-125 30 -14 5 -86 21 -160 35 -74 14 -153 30 -175 35 -77 18 -353 66 -435 75
-30 4 -64 9 -75 11 -11 2 -54 9 -95 14 -41 6 -97 15 -125 20 -44 9 -181 28
-430 61 -142 18 -341 39 -379 39 -21 0 -57 5 -79 12 l-39 12 5 55 c5 58 38
219 87 426 47 200 53 226 46 233 -9 8 -166 49 -236 62 -251 44 -979 128 -999
116 -5 -3 -46 -1 -92 4 -207 22 -626 28 -1139 18z"/>
<path d="M7157 4914 c-1 -1 -132 -5 -292 -9 -159 -4 -337 -9 -395 -11 -58 -3
-150 -5 -205 -4 -55 0 -116 -5 -135 -10 -30 -9 -371 -32 -455 -31 -16 1 -79
-6 -140 -14 -60 -8 -135 -17 -165 -19 -119 -10 -368 -37 -430 -47 -36 -5 -110
-14 -165 -19 -149 -12 -460 -55 -650 -88 -115 -20 -197 -33 -380 -57 -60 -8
-128 -20 -150 -25 -22 -6 -66 -12 -99 -14 -32 -2 -63 -9 -69 -15 -6 -6 -24
-11 -41 -11 -16 0 -43 -4 -60 -10 -17 -5 -78 -18 -136 -29 -144 -28 -363 -75
-495 -106 -60 -14 -180 -42 -265 -61 -316 -72 -416 -95 -450 -104 -88 -25
-237 -60 -255 -60 -11 0 -33 -7 -49 -15 -15 -8 -35 -15 -44 -15 -9 0 -29 -4
-46 -9 -92 -27 -180 -53 -251 -74 -70 -21 -137 -41 -265 -78 -19 -6 -44 -14
-55 -18 -41 -17 -121 -40 -155 -46 -19 -4 -46 -15 -60 -25 -23 -17 -23 -20
-10 -47 8 -15 22 -39 32 -52 10 -12 20 -38 24 -56 3 -19 11 -36 18 -38 7 -3
18 -24 26 -48 7 -24 17 -48 21 -54 15 -21 89 -165 89 -174 0 -5 16 -44 35 -85
19 -42 35 -79 35 -82 0 -3 11 -29 24 -57 13 -29 33 -79 45 -112 12 -33 25 -69
30 -80 27 -66 80 -219 96 -280 9 -33 27 -94 40 -135 13 -41 27 -93 31 -115 4
-22 10 -44 14 -50 4 -5 24 -77 44 -160 21 -82 42 -159 46 -170 5 -11 11 -45
15 -75 3 -30 9 -65 12 -78 l5 -22 5948 0 5947 0 17 78 c10 42 23 100 31 127 7
28 18 73 24 100 21 103 29 134 75 290 26 88 53 174 61 190 7 17 21 59 30 95
15 61 25 92 46 132 5 10 9 24 9 32 0 13 13 48 65 171 7 17 19 48 26 70 7 22
19 47 25 55 7 8 16 29 19 45 4 17 18 48 30 70 13 22 28 60 35 85 6 25 17 52
24 60 6 8 17 26 23 40 7 14 21 45 33 70 11 25 24 52 30 60 5 8 23 44 40 79 24
52 28 67 18 77 -15 13 -125 55 -148 56 -16 1 -101 28 -255 81 -55 19 -113 38
-130 41 -16 4 -61 16 -100 27 -38 12 -92 27 -120 35 -27 8 -59 19 -70 24 -11
5 -45 14 -75 19 -30 5 -71 14 -90 20 -19 5 -55 15 -80 21 -25 6 -78 20 -117
31 -40 10 -81 19 -92 19 -11 0 -22 4 -25 9 -4 5 -30 12 -59 16 -28 4 -56 11
-62 15 -5 4 -44 15 -85 24 -41 9 -93 21 -115 26 -22 5 -123 29 -225 53 -244
58 -364 86 -425 96 -27 5 -149 30 -270 55 -121 25 -233 48 -250 50 -16 3 -52
9 -80 15 -61 14 -228 42 -273 46 -18 2 -45 6 -60 10 -15 4 -67 13 -117 21 -49
8 -117 19 -150 24 -33 5 -116 17 -185 25 -69 8 -152 19 -185 24 -33 6 -107 15
-165 21 -58 6 -132 16 -165 21 -69 12 -197 25 -375 39 -69 6 -159 16 -200 22
-41 7 -100 13 -130 14 -115 4 -250 13 -380 25 -74 7 -184 13 -245 14 -60 1
-157 5 -215 9 -160 12 -359 17 -773 19 -208 1 -379 1 -380 1z m783 -388 c179
-3 375 -7 435 -9 245 -10 384 -16 450 -21 39 -3 117 -8 175 -11 125 -7 327
-21 500 -35 69 -5 154 -12 190 -15 166 -12 217 -17 390 -35 102 -11 210 -22
240 -24 151 -11 226 -19 345 -36 72 -11 148 -21 170 -24 22 -2 92 -12 155 -20
63 -9 120 -14 126 -12 7 3 40 -1 75 -9 35 -7 129 -23 209 -35 80 -12 179 -28
220 -37 41 -8 124 -21 185 -28 60 -8 111 -19 113 -25 2 -5 25 -10 50 -10 48 0
167 -19 302 -47 41 -9 93 -18 115 -20 22 -2 49 -8 60 -13 19 -9 128 -30 255
-50 78 -12 245 -47 315 -66 33 -9 71 -18 85 -21 41 -7 164 -35 180 -41 8 -3
40 -11 70 -18 90 -20 252 -62 257 -68 7 -6 -18 -73 -68 -182 -11 -22 -19 -47
-19 -55 0 -8 -4 -19 -9 -24 -5 -6 -14 -26 -19 -45 -10 -33 -26 -81 -42 -125
-19 -49 -29 -85 -45 -158 -10 -42 -21 -80 -26 -83 -5 -3 -9 -14 -9 -25 0 -10
-4 -27 -9 -37 -12 -24 -31 -107 -31 -137 0 -14 -4 -33 -9 -43 -13 -26 -45
-171 -48 -220 -1 -24 -9 -67 -17 -95 -8 -29 -22 -92 -31 -142 -18 -106 -43
-207 -53 -216 -7 -6 -7595 -33 -7857 -28 -280 5 -1070 4 -2170 -5 -1194 -9
-1249 -9 -1277 0 -10 3 -34 0 -55 -5 -24 -7 -41 -7 -47 -1 -6 6 -29 10 -53 10
-33 0 -45 4 -49 18 -3 9 -9 24 -14 34 -5 9 -12 40 -15 70 -6 50 -10 71 -35
181 -5 23 -16 83 -25 132 -20 112 -51 260 -72 345 -9 36 -19 83 -23 105 -25
128 -98 343 -185 545 -57 134 -86 211 -81 219 12 19 363 105 514 126 24 3 51
10 60 15 18 10 168 44 242 55 47 7 326 57 680 121 212 38 286 50 650 103 442
65 502 72 517 67 8 -3 38 0 66 8 29 8 88 18 132 21 44 3 107 10 140 15 62 10
758 74 925 85 52 3 147 10 210 16 169 14 601 41 710 44 52 2 199 6 325 11 127
4 306 9 398 10 93 1 170 4 172 6 4 4 518 0 985 -6z"/>
<path d="M7230 4059 c-196 -9 -332 -34 -565 -105 -44 -13 -86 -24 -94 -24 -8
0 -22 -6 -30 -13 -9 -8 -51 -28 -93 -47 -43 -18 -83 -39 -89 -46 -6 -8 -18
-14 -26 -14 -8 0 -32 -13 -52 -28 -20 -16 -52 -38 -71 -50 -20 -11 -74 -61
-121 -111 -111 -117 -158 -206 -166 -317 -6 -83 13 -240 32 -264 6 -8 22 -35
34 -60 21 -40 86 -116 166 -192 17 -16 59 -48 95 -71 36 -23 70 -47 75 -54 12
-15 148 -81 230 -112 33 -13 81 -32 107 -42 26 -10 58 -19 71 -19 14 0 30 -6
36 -13 10 -13 99 -32 191 -41 56 -6 110 -16 130 -24 37 -15 503 -17 605 -2 44
6 123 17 175 24 132 18 368 89 385 116 3 5 16 10 28 10 12 0 51 14 85 30 35
17 68 30 73 30 6 0 29 14 52 30 23 17 80 58 127 92 47 33 102 79 124 102 46
49 126 170 126 191 0 9 12 44 26 78 25 58 26 66 15 127 -6 36 -13 83 -17 105
-3 22 -19 64 -35 93 -16 29 -29 58 -29 64 0 14 -42 66 -115 141 -56 57 -131
115 -208 161 -18 10 -35 22 -38 27 -3 5 -29 17 -57 27 -29 11 -55 22 -59 25
-3 4 -12 7 -20 7 -7 0 -40 13 -74 30 -33 16 -73 31 -87 34 -15 2 -40 9 -57 14
-45 15 -137 40 -165 46 -14 2 -43 9 -66 15 -23 6 -65 13 -95 17 -30 3 -72 8
-94 10 -66 8 -310 9 -465 3z m295 -214 c44 -4 91 -9 105 -11 14 -2 50 -8 82
-13 57 -9 119 -26 150 -42 10 -5 24 -9 31 -9 8 0 60 -23 116 -50 176 -86 290
-187 346 -305 42 -92 45 -100 46 -170 2 -41 -5 -78 -19 -115 -12 -30 -22 -63
-22 -72 0 -10 -4 -18 -9 -18 -5 0 -19 -20 -31 -44 -32 -67 -184 -194 -286
-238 -16 -7 -40 -20 -53 -30 -13 -10 -34 -18 -47 -18 -12 0 -53 -11 -91 -24
-37 -13 -106 -29 -152 -35 -46 -6 -89 -15 -95 -20 -11 -9 -303 -7 -386 3 -25
2 -70 12 -100 20 -30 9 -80 22 -110 30 -69 17 -115 34 -160 57 -19 10 -56 28
-82 40 -27 12 -48 25 -48 30 0 5 -6 9 -14 9 -44 0 -222 205 -225 259 -1 8 -9
23 -18 34 -15 16 -18 38 -18 121 0 90 3 107 28 158 15 31 27 61 27 67 0 5 33
43 73 84 76 77 178 150 257 181 25 10 64 27 88 38 24 11 46 17 49 14 3 -3 15
0 27 7 11 6 28 13 36 14 8 2 38 7 65 13 28 5 70 12 95 15 25 4 54 11 65 16 19
8 152 17 185 12 8 -1 51 -5 95 -8z"/>
<path d="M2283 3862 c-32 -5 -73 -48 -73 -75 0 -14 13 -39 29 -56 l29 -31 144
-1 c78 0 170 0 203 1 55 1 66 -2 115 -36 30 -21 61 -46 69 -56 7 -11 31 -33
53 -49 22 -16 83 -68 134 -116 51 -49 106 -97 120 -108 15 -11 52 -43 83 -70
31 -28 94 -84 140 -125 46 -41 123 -112 170 -157 47 -46 89 -83 94 -83 4 0 30
-21 57 -47 96 -90 148 -138 211 -193 34 -30 78 -69 97 -87 42 -39 62 -42 236
-42 l138 -1 43 31 c24 17 58 49 75 70 17 22 35 39 41 39 5 0 27 17 48 38 21
20 72 69 114 107 42 39 112 105 156 148 44 42 85 77 90 77 5 0 38 28 74 63 35
34 70 67 77 74 6 6 24 23 38 38 55 54 68 65 80 65 7 0 12 6 12 13 1 6 24 31
53 55 29 24 99 88 157 142 58 55 110 100 115 100 6 0 26 18 45 40 19 22 41 40
50 40 8 0 24 8 35 16 16 12 46 15 155 13 143 -3 167 2 195 44 11 18 12 31 5
57 -20 71 49 65 -792 67 -420 1 -777 0 -794 -3 -18 -2 -44 -16 -58 -31 -24
-23 -26 -32 -20 -67 7 -48 6 -46 33 -51 11 -2 26 -7 32 -11 6 -3 173 -8 371
-10 219 -3 367 -8 379 -14 29 -16 23 -36 -18 -66 -21 -15 -54 -44 -73 -63 -19
-20 -54 -52 -78 -71 -23 -19 -44 -42 -48 -52 -3 -9 -13 -19 -22 -23 -9 -3 -36
-22 -58 -43 -71 -64 -106 -92 -115 -92 -4 0 -14 -10 -20 -22 -7 -13 -22 -30
-33 -39 -12 -9 -39 -34 -61 -54 -157 -147 -254 -235 -284 -256 -32 -23 -54
-12 -137 68 -93 88 -121 113 -131 113 -4 0 -47 38 -95 85 -47 47 -88 85 -91
85 -2 0 -26 21 -54 48 -27 26 -73 68 -103 95 -180 156 -290 260 -290 273 0 23
39 27 320 30 157 2 299 6 317 9 41 7 63 38 63 88 0 35 -3 39 -44 58 -42 18
-72 19 -912 17 -478 -1 -879 -4 -891 -6z"/>
<path d="M8973 3826 c-14 -14 -23 -36 -23 -54 0 -80 28 -90 251 -89 174 0 174
0 256 -32 45 -19 88 -40 94 -47 6 -8 19 -14 29 -14 10 0 20 -6 23 -13 3 -8 20
-21 39 -31 18 -9 40 -21 48 -26 8 -5 56 -33 105 -61 50 -29 107 -63 127 -75
21 -13 42 -24 47 -24 5 0 22 -11 38 -24 15 -13 42 -31 58 -40 17 -9 50 -30 75
-46 25 -15 74 -43 108 -61 35 -18 66 -39 69 -46 10 -27 -31 -54 -227 -153 -19
-10 -44 -28 -54 -39 -11 -12 -25 -21 -32 -21 -14 0 -141 -75 -169 -100 -11
-10 -32 -22 -47 -25 -14 -4 -34 -15 -44 -26 -9 -10 -25 -19 -36 -19 -10 0 -18
-3 -18 -8 0 -14 -84 -50 -160 -69 -61 -15 -116 -18 -302 -18 l-226 0 -27 -25
c-23 -22 -26 -31 -22 -68 3 -24 9 -48 14 -53 24 -24 173 -29 846 -27 l709 3
19 24 c12 15 19 39 19 67 0 41 -2 45 -41 65 -38 19 -56 21 -233 19 -105 -1
-206 -1 -225 -1 -33 1 -34 1 -16 21 10 11 37 31 59 43 23 13 82 48 131 77 50
29 102 59 118 67 15 8 27 19 27 24 0 5 6 9 13 9 6 0 43 16 81 35 68 33 70 33
110 18 23 -9 55 -27 73 -40 18 -13 40 -27 50 -31 40 -16 133 -74 133 -83 0 -5
6 -9 14 -9 15 0 158 -93 176 -115 11 -13 7 -15 -26 -16 -22 -1 -43 0 -49 2 -5
1 -19 2 -30 2 -146 -4 -174 -7 -205 -21 -61 -30 -67 -117 -10 -147 25 -13 129
-15 789 -15 741 0 761 0 771 19 22 43 4 125 -30 136 -9 3 -89 7 -176 9 -256 6
-316 23 -430 119 -25 20 -51 37 -58 37 -8 0 -19 7 -26 15 -7 8 -19 15 -28 15
-8 0 -23 6 -31 14 -14 13 -46 31 -147 85 -16 9 -44 27 -61 39 -17 12 -34 22
-38 22 -3 0 -25 12 -48 28 -23 15 -59 35 -79 45 -21 9 -38 21 -38 26 0 5 -8
12 -17 15 -22 8 -50 24 -87 52 l-28 20 32 32 c17 18 38 32 47 32 8 0 29 10 46
23 43 30 135 85 172 103 17 8 51 27 77 43 25 16 68 41 94 56 27 15 59 36 73
46 13 10 31 19 39 19 9 0 25 8 36 19 22 19 93 57 162 86 49 20 95 24 323 25
191 1 214 7 226 61 8 35 -11 81 -39 100 -30 19 -1483 26 -1526 8 -23 -11 -29
-21 -33 -54 -4 -40 0 -54 27 -89 14 -17 36 -19 283 -23 147 -2 270 -6 273 -9
7 -8 -51 -55 -102 -83 -24 -13 -90 -48 -148 -78 -58 -30 -123 -67 -145 -83
-22 -16 -63 -38 -91 -49 -45 -17 -56 -18 -85 -7 -65 24 -109 47 -184 96 -22
15 -55 32 -72 39 -18 8 -33 16 -33 20 0 4 -26 19 -57 35 -32 15 -65 32 -73 37
-8 5 -24 14 -36 20 -23 12 -48 48 -40 57 3 3 72 5 152 4 144 -2 146 -1 180 26
33 25 35 30 29 67 -3 22 -16 50 -27 62 l-21 23 -756 0 -756 0 -22 -24z"/>
<path d="M1515 1740 c-3 -5 -3 -15 0 -20 3 -6 15 -85 25 -178 11 -92 24 -198
30 -237 5 -38 11 -90 12 -115 3 -78 -4 -73 198 -115 69 -14 233 -47 365 -75
132 -27 335 -66 450 -85 116 -19 237 -39 270 -45 60 -10 183 -29 350 -55 136
-21 625 -79 800 -95 55 -5 145 -13 200 -19 118 -12 378 -37 595 -56 85 -7 193
-14 240 -15 47 0 113 -5 146 -10 34 -6 72 -9 85 -9 13 1 49 -1 79 -4 30 -3
141 -9 245 -12 105 -3 231 -8 281 -10 50 -3 176 -7 280 -10 104 -2 331 -10
504 -17 354 -13 1567 -16 1995 -5 399 11 711 25 930 42 197 15 241 18 485 35
160 11 325 26 440 40 41 5 134 14 205 20 72 6 150 13 175 16 56 5 608 79 745
99 55 8 154 22 220 30 104 14 317 47 395 61 14 2 106 18 205 34 99 17 214 37
255 45 130 24 510 105 510 108 1 1 7 40 15 87 8 47 19 110 24 140 5 30 12 89
16 130 3 41 14 124 24 183 17 103 17 109 0 118 -25 13 -11786 12 -11794 -1z
m5611 -352 c12 -13 25 -33 29 -45 10 -34 -17 -29 -43 7 -18 23 -30 30 -57 30
-43 0 -70 -25 -85 -80 -26 -98 25 -199 93 -186 33 6 67 38 67 62 0 8 9 14 20
14 24 0 24 -1 6 -44 -19 -45 -52 -66 -104 -66 -34 0 -49 6 -72 28 -75 76 -62
253 23 296 41 21 94 14 123 -16z m1264 4 c39 -28 60 -80 60 -145 0 -71 -22
-123 -64 -148 -65 -40 -141 -16 -175 54 -74 153 57 327 179 239z m-3508 -102
c68 -204 70 -210 49 -210 -13 0 -22 14 -32 53 l-14 52 -61 3 -61 3 -14 -53
c-10 -36 -20 -54 -33 -56 -13 -3 -17 1 -13 15 3 10 27 85 52 166 42 133 49
148 67 145 17 -2 28 -24 60 -118z m274 -19 c21 -77 42 -137 45 -133 3 4 23 67
45 140 35 120 40 132 61 132 l23 0 0 -165 c0 -139 -2 -165 -15 -165 -12 0 -15
24 -17 138 l-3 137 -33 -105 c-18 -58 -38 -120 -43 -137 -19 -61 -35 -38 -77
110 l-41 142 0 -142 c-1 -129 -3 -143 -18 -143 -16 0 -18 15 -18 165 l0 165
26 0 c25 0 28 -6 65 -139z m523 120 c28 -28 36 -81 17 -124 -16 -39 -29 -45
-111 -49 l-50 -3 0 -65 c0 -53 -4 -65 -18 -68 -16 -3 -17 11 -17 162 l0 166
80 0 c66 0 83 -3 99 -19z m212 -129 l-3 -142 71 0 c64 0 71 -2 71 -20 0 -18
-7 -20 -85 -20 l-85 0 0 166 c0 151 2 165 17 162 15 -3 17 -18 14 -146z m319
-17 c0 -140 -2 -165 -15 -165 -13 0 -15 25 -15 165 0 140 2 165 15 165 13 0
15 -25 15 -165z m360 150 c0 -11 -18 -15 -77 -17 l-78 -3 0 -50 0 -50 68 -3
c37 -2 67 -6 67 -10 -1 -19 -19 -27 -65 -29 -27 0 -55 -1 -61 -2 -7 -1 -11
-27 -11 -73 1 -61 -2 -74 -16 -76 -15 -3 -17 12 -17 162 l0 166 95 0 c77 0 95
-3 95 -15z m200 -150 c0 -140 -2 -165 -15 -165 -13 0 -15 25 -15 165 0 140 2
165 15 165 13 0 15 -25 15 -165z m692 45 c68 -204 70 -210 49 -210 -13 0 -22
14 -32 53 l-14 52 -61 3 -61 3 -14 -53 c-10 -36 -20 -54 -33 -56 -13 -3 -17 1
-13 15 3 10 27 85 52 166 42 133 49 148 67 145 17 -2 28 -24 60 -118z m388
105 c0 -11 -12 -15 -45 -15 -56 0 -58 -6 -54 -175 4 -114 2 -125 -13 -125 -16
0 -18 14 -18 150 l0 150 -45 0 c-33 0 -45 4 -45 15 0 12 19 15 110 15 91 0
110 -3 110 -15z m180 -150 c0 -140 -2 -165 -15 -165 -13 0 -15 25 -15 165 0
140 2 165 15 165 13 0 15 -25 15 -165z m687 45 c35 -63 67 -118 71 -122 5 -5
8 47 8 114 0 108 2 123 17 126 15 3 17 -11 17 -162 0 -157 -1 -166 -19 -166
-14 0 -37 33 -87 124 -38 69 -71 123 -73 120 -2 -2 -5 -57 -6 -122 -2 -100 -5
-117 -19 -120 -14 -3 -16 14 -16 163 0 164 0 166 21 163 16 -2 39 -34 86 -118z
m429 95 c1 -11 2 -75 3 -142 l1 -123 65 0 c58 0 65 -2 65 -20 0 -18 -7 -20
-85 -20 l-85 0 0 166 c0 152 1 165 18 162 9 -2 18 -12 18 -23z m464 10 c0 -11
-12 -15 -45 -15 -56 0 -58 -6 -54 -175 4 -114 2 -125 -13 -125 -16 0 -18 14
-18 150 l0 150 -45 0 c-33 0 -45 4 -45 15 0 12 19 15 110 15 91 0 110 -3 110
-15z m323 -9 c47 -44 62 -158 28 -231 -26 -59 -42 -68 -132 -73 l-79 -5 0 167
0 166 79 0 c68 0 81 -3 104 -24z m561 8 c18 -7 21 -45 5 -61 -8 -8 -6 -18 6
-37 10 -14 13 -26 8 -26 -5 0 -17 14 -27 31 -21 35 -53 36 -48 1 2 -12 -1 -22
-7 -22 -8 0 -10 101 -2 118 2 4 50 2 65 -4z m-324 -294 c0 -11 -7 -20 -15 -20
-8 0 -15 9 -15 20 0 11 7 20 15 20 8 0 15 -9 15 -20z"/>
<path d="M8257 1351 c-63 -76 -36 -216 46 -236 79 -20 143 95 106 192 -29 77
-105 99 -152 44z"/>
<path d="M4817 1360 c-3 -8 -14 -43 -26 -77 l-20 -63 50 0 c27 0 49 4 49 8 0
24 -49 145 -53 132z"/>
<path d="M5534 1366 c-3 -8 -4 -36 -2 -63 l3 -48 42 -3 c49 -4 81 11 92 41 9
24 -3 67 -22 79 -22 14 -107 9 -113 -6z"/>
<path d="M7379 1304 l-25 -79 44 -3 c24 -2 46 -1 48 1 2 2 -7 39 -19 82 l-24
78 -24 -79z"/>
<path d="M9790 1251 l0 -131 48 0 c27 0 57 7 69 15 46 32 54 161 14 214 -15
19 -30 25 -75 29 l-56 4 0 -131z"/>
<path d="M10440 1365 c0 -20 5 -25 25 -25 29 0 45 28 24 41 -27 17 -49 10 -49
-16z"/>
</g>
</svg>
